<?xml version="1.0" standalone="no"?>
<!DOCTYPE svg PUBLIC "-//W3C//DTD SVG 20010904//EN"
 "http://www.w3.org/TR/2001/REC-SVG-20010904/DTD/svg10.dtd">
<svg version="1.0" xmlns="http://www.w3.org/2000/svg"
 width="589.000000pt" height="589.000000pt" viewBox="0 0 589.000000 589.000000"
 preserveAspectRatio="xMidYMid meet">

<g transform="translate(0.000000,589.000000) scale(0.100000,-0.100000)"
fill="#000000" stroke="none">
<path d="M5119 5552 c-26 -15 -57 -34 -70 -43 l-23 -16 49 -36 c28 -20 58 -37
67 -37 16 0 98 40 126 63 6 5 12 16 12 23 0 15 -85 74 -104 74 -6 -1 -32 -13
-57 -28z"/>
<path d="M1958 5056 c-565 -281 -1027 -514 -1027 -517 -1 -3 10 -11 23 -17 22
-10 121 37 976 464 523 260 953 474 956 474 2 0 4 -94 4 -209 l0 -209 -35 -22
c-19 -12 -39 -19 -45 -15 -5 3 -10 2 -10 -4 0 -10 -38 -27 -52 -23 -5 1 -8 -6
-8 -15 0 -15 -2 -16 -10 -3 -8 13 -10 12 -10 -3 0 -10 -4 -16 -9 -12 -5 3 -12
1 -16 -5 -4 -6 -10 -8 -15 -5 -4 2 -19 -5 -34 -16 -14 -11 -30 -17 -36 -14 -6
4 -10 -14 -10 -47 0 -29 -1 -220 -3 -425 l-2 -372 -28 -16 c-79 -47 -77 -47
-133 -15 -32 18 -60 27 -73 23 -15 -4 -21 -1 -21 11 0 9 -7 16 -15 16 -8 0
-15 7 -15 15 0 8 -3 15 -8 15 -4 0 -6 18 -4 40 4 43 7 45 46 30 39 -14 31 -3
-13 20 l-39 20 -2 182 c0 100 -3 184 -5 186 -2 2 -74 -32 -159 -77 -86 -44
-152 -82 -147 -85 5 -3 5 -21 1 -40 -5 -21 -3 -39 3 -45 7 -7 7 -18 -1 -36 -7
-15 -10 -31 -7 -36 4 -5 1 -9 -6 -9 -8 0 -6 -5 5 -13 15 -11 17 -32 19 -144
l2 -131 -60 30 c-83 42 -91 53 -97 129 -5 66 -22 94 -82 139 -17 13 -19 13
-11 0 15 -25 15 -59 -1 -53 -7 3 -38 -9 -69 -26 l-54 -31 -108 57 c-66 35
-101 49 -90 36 9 -11 14 -23 10 -27 -5 -4 -3 -7 2 -6 6 1 19 2 30 1 20 -2 20
-2 1 -16 -12 -9 -29 -12 -40 -9 -48 15 -43 12 974 -526 387 -205 468 -250 459
-250 -19 0 -92 32 -140 63 -29 19 -100 57 -156 85 -95 48 -123 54 -156 36 -6
-4 -4 1 5 12 17 17 15 19 -45 52 -34 19 -70 34 -80 34 -9 -1 -15 3 -12 9 9 14
-12 11 -45 -6 -51 -26 -131 -55 -125 -45 3 5 13 10 22 10 12 0 13 3 4 13 -6 8
-23 12 -41 9 -25 -4 -30 -1 -30 17 0 26 -28 28 -46 4 -15 -21 -64 -26 -57 -6
3 7 0 13 -7 13 -7 0 -10 7 -7 15 4 8 2 17 -4 20 -5 4 -7 10 -4 15 9 14 -12 21
-23 7 -6 -7 -7 -18 -2 -26 4 -8 5 -21 0 -30 -4 -9 -13 -29 -19 -44 -6 -16 -16
-25 -22 -22 -6 4 -3 12 8 21 10 7 14 14 10 14 -4 0 -2 10 4 23 12 22 12 22 -9
4 -20 -18 -20 -18 -11 20 6 21 11 44 11 51 1 7 8 10 16 7 8 -3 16 3 19 15 3
11 12 20 21 20 8 0 13 -2 10 -5 -9 -9 58 -75 76 -75 10 0 30 -8 44 -18 28 -20
57 -33 81 -38 20 -4 95 36 85 46 -24 21 -269 140 -290 140 -15 0 -24 6 -24 15
0 8 -4 15 -10 15 -5 0 -10 -17 -10 -37 0 -34 -1 -35 -14 -17 -9 12 -11 21 -4
25 11 7 10 16 -2 40 -9 16 -458 249 -480 249 -7 0 1 -13 16 -29 35 -35 144
-97 144 -82 0 6 5 11 10 11 6 0 10 -9 10 -19 0 -23 23 -34 39 -18 9 9 11 8 7
-3 -4 -10 5 -21 24 -32 l30 -17 -22 -24 c-13 -13 -26 -22 -29 -20 -3 1 -11 -9
-18 -24 -11 -25 -12 -25 -26 -7 -14 18 -15 18 -21 -4 -5 -16 -12 -21 -24 -17
-26 8 -47 -4 -60 -35 -7 -17 -18 -27 -28 -25 -33 4 -72 -16 -72 -38 -1 -21 -1
-21 -15 3 -13 22 -14 -30 -15 -426 0 -310 3 -453 11 -461 8 -8 4 -16 -13 -28
-19 -15 -20 -16 -3 -10 11 4 28 8 37 10 10 2 28 16 40 30 l23 26 2 -27 c0 -17
-2 -22 -7 -14 -5 7 -10 8 -14 2 -3 -5 1 -15 9 -22 8 -7 13 -16 10 -20 -3 -4 5
-14 18 -22 27 -18 67 -29 67 -19 0 4 12 13 26 19 14 7 23 16 20 20 -2 4 14 6
35 4 38 -4 40 -3 34 21 -8 30 8 43 25 22 7 -8 17 -15 22 -15 5 0 2 7 -6 16 -9
8 -13 20 -10 26 4 6 10 5 16 -3 7 -11 11 -11 15 -1 6 16 24 5 17 -11 -5 -14
54 -15 76 -2 8 5 4 -6 -9 -23 -12 -18 -33 -35 -47 -38 -13 -3 -22 -10 -19 -14
6 -10 -54 -25 -62 -16 -4 3 -15 -2 -25 -11 -18 -16 -18 -16 -12 1 6 16 4 17
-14 7 -24 -13 -43 -15 -24 -2 11 7 11 9 -2 14 -9 4 -16 2 -16 -3 0 -6 -7 -10
-15 -10 -26 0 -16 -16 20 -33 43 -21 40 -21 61 0 27 28 44 26 33 -4 -12 -32
-12 -33 6 -33 8 0 15 -4 15 -8 0 -5 7 -9 15 -9 8 0 12 4 9 9 -3 4 0 8 5 8 6 0
11 8 11 18 0 14 2 15 10 2 8 -12 10 -9 10 13 0 15 6 27 13 28 6 0 3 4 -8 8
-14 6 1 10 48 12 37 2 67 1 67 -2 0 -4 12 -14 26 -24 21 -14 31 -15 51 -6 21
10 28 9 40 -6 8 -10 12 -13 9 -7 -4 7 3 12 17 12 23 0 73 7 122 17 23 5 26 4
15 -4 -13 -9 -13 -11 0 -11 11 0 11 -3 2 -12 -9 -9 -15 -9 -24 0 -13 13 -42 1
-71 -30 -26 -27 -15 -48 27 -48 48 0 66 9 66 34 1 40 22 61 65 63 31 2 35 1
20 -6 -11 -5 -16 -10 -11 -10 5 -1 3 -8 -4 -16 -11 -13 -15 -13 -21 -3 -6 8
-9 2 -9 -18 0 -36 13 -44 70 -44 44 0 63 21 54 61 -5 20 -2 18 16 -10 17 -27
19 -36 8 -42 -11 -7 -10 -11 2 -18 8 -5 18 -7 22 -5 4 3 5 -1 2 -9 -3 -8 5
-18 19 -24 33 -15 73 5 70 35 -2 19 1 22 23 18 35 -7 42 -15 23 -26 -20 -11
-69 -54 -52 -46 6 4 33 8 59 10 l47 4 -24 -20 c-22 -18 -21 -18 19 2 40 19 60
39 26 26 -9 -3 -12 -2 -9 5 4 6 14 8 22 5 8 -4 39 7 68 24 60 34 65 36 65 15
0 -8 -9 -15 -19 -15 -10 0 -22 -7 -25 -16 -4 -12 -2 -15 9 -10 8 3 15 1 15 -3
0 -15 -33 -22 -42 -9 -7 9 -8 4 -5 -15 2 -15 0 -30 -6 -34 -6 -3 -7 -1 -3 5 4
7 5 12 2 12 -3 0 -12 -12 -20 -27 -11 -20 -15 -23 -16 -10 0 26 -20 21 -20 -5
0 -15 -3 -19 -8 -11 -6 9 -13 5 -27 -13 -14 -18 -20 -21 -26 -12 -6 10 -12 8
-23 -7 -9 -11 -16 -26 -16 -32 0 -16 -20 -18 -20 -3 0 15 -33 8 -46 -10 -7 -8
-12 -17 -12 -20 0 -3 -7 -22 -15 -42 -9 -22 -12 -38 -6 -40 6 -2 4 -15 -5 -33
-14 -27 -14 -30 7 -49 13 -12 49 -34 80 -50 32 -16 60 -33 63 -38 3 -5 14 -6
25 -3 15 5 17 3 12 -11 -4 -12 -3 -15 5 -10 7 4 12 3 12 -3 0 -5 15 -14 34
-21 29 -9 40 -8 75 11 50 26 57 36 31 44 -11 3 -21 11 -21 16 -3 19 -5 24 -12
37 -5 6 -13 12 -19 12 -7 0 -6 -6 2 -15 10 -12 10 -15 -4 -15 -12 0 -16 -10
-17 -37 l0 -38 -18 45 c-10 25 -16 53 -15 63 2 10 -1 15 -5 12 -5 -3 -12 3
-15 12 -6 15 -8 15 -17 3 -8 -12 -10 -10 -6 8 3 14 0 22 -8 22 -17 0 -26 -51
-12 -70 10 -13 10 -13 -4 -3 -9 7 -18 11 -21 8 -2 -3 -4 5 -3 18 1 12 -3 25
-9 29 -8 5 -7 8 1 8 7 0 10 7 7 15 -13 32 6 61 57 89 36 19 60 26 78 21 15 -3
21 -2 14 3 -9 5 2 15 33 31 26 12 44 25 41 28 -4 3 -27 -7 -52 -22 -26 -15
-49 -25 -51 -22 -3 2 20 19 51 38 40 24 55 39 55 56 0 12 5 25 11 29 8 5 10
-3 7 -25 -4 -24 -1 -31 12 -31 13 0 16 9 16 40 -1 22 1 40 4 40 3 0 4 53 2
118 l-3 118 -55 30 c-29 16 -54 35 -54 42 0 7 -4 10 -10 7 -5 -3 -10 -3 -11 2
-10 78 -9 82 17 73 14 -6 23 -6 20 -1 -3 5 3 11 14 14 11 3 20 13 20 22 0 14
6 16 27 10 l28 -7 -28 22 c-18 14 -27 31 -27 49 0 15 -6 49 -14 74 -8 26 -12
47 -10 47 8 0 45 -81 53 -117 l9 -38 1 42 c1 32 5 43 21 48 11 3 20 13 20 20
0 8 7 18 17 23 9 6 14 16 10 25 -3 9 1 18 10 21 11 4 14 2 9 -9 -3 -10 1 -15
13 -15 10 0 30 -9 45 -21 36 -28 37 -89 1 -117 -19 -15 -25 -29 -24 -58 1 -34
2 -36 9 -14 7 21 8 18 9 -19 1 -34 7 -52 28 -73 15 -15 22 -28 15 -28 -6 0
-14 4 -17 10 -14 22 -25 7 -24 -32 1 -48 16 -108 18 -73 1 16 3 17 10 5 6 -8
8 -17 5 -21 -2 -4 0 -10 6 -14 5 -3 10 -13 10 -22 0 -12 -3 -13 -15 -3 -21 17
-35 3 -35 -36 0 -26 7 -41 28 -59 15 -13 24 -27 19 -31 -4 -4 -13 -2 -19 4
-19 19 -28 14 -28 -18 0 -32 34 -61 43 -37 3 6 5 -24 4 -68 0 -93 -3 -101 -25
-78 -16 16 -17 14 -20 -26 -3 -38 10 -71 27 -71 4 0 5 17 3 38 -3 20 -2 34 2
31 3 -3 8 -37 10 -75 3 -38 2 -59 0 -47 -3 12 -12 27 -20 33 -12 10 -14 7 -14
-18 0 -17 6 -32 15 -36 19 -7 21 -76 3 -76 -9 0 -8 -4 2 -10 13 -9 13 -12 -2
-24 -10 -7 -18 -20 -18 -28 0 -8 -5 -19 -11 -25 -8 -8 -5 -14 10 -22 12 -7 21
-17 21 -24 0 -8 -3 -8 -8 -2 -13 20 -50 15 -56 -8 -3 -14 4 -29 24 -49 35 -33
36 -38 13 -38 -14 0 -15 -2 -4 -9 11 -7 9 -10 -8 -16 -12 -3 -19 -10 -16 -14
2 -5 -3 -17 -11 -27 -15 -18 -15 -18 -10 4 2 13 2 21 -1 18 -4 -3 -12 -1 -20
6 -19 15 -30 1 -16 -21 12 -20 6 -34 -18 -43 -36 -14 -51 32 -22 65 17 18 17
19 1 31 -10 7 -15 15 -12 18 4 4 -57 3 -75 -1 -2 -1 2 -8 9 -16 9 -11 9 -15 1
-15 -7 0 -9 -5 -6 -10 3 -6 -1 -13 -9 -16 -9 -3 -13 -10 -10 -15 3 -5 10 -7
15 -4 5 4 9 -3 9 -14 0 -22 32 -45 45 -33 5 4 5 2 2 -4 -9 -16 83 -60 93 -44
5 9 9 9 14 1 4 -6 4 -15 1 -21 -3 -5 -1 -10 4 -10 6 0 11 14 11 30 0 17 5 30
10 30 6 0 10 -10 10 -22 0 -27 13 -15 15 14 2 27 20 35 29 12 6 -17 -37 -68
-48 -56 -3 3 -6 -1 -6 -9 0 -8 14 -23 30 -32 22 -13 30 -26 30 -46 0 -15 5
-32 11 -38 16 -16 -13 -23 -35 -8 -15 12 -16 14 -2 22 12 7 -3 20 -65 57 -44
26 -83 46 -86 43 -3 -3 13 -15 35 -26 22 -11 42 -27 46 -36 3 -9 10 -14 16
-10 11 7 55 -14 47 -22 -3 -2 -14 0 -26 6 -13 7 -22 8 -26 1 -3 -6 4 -15 17
-20 18 -8 18 -10 3 -6 -11 2 -27 7 -36 10 -13 6 -16 2 -14 -18 l3 -26 -46 27
c-51 29 -77 48 -52 38 11 -4 16 1 17 17 2 16 0 19 -6 9 -7 -11 -13 -10 -37 2
l-29 15 33 14 33 13 -23 14 c-17 10 -20 10 -11 0 10 -10 8 -15 -10 -24 -25
-13 -46 -7 -26 7 11 7 10 8 -4 4 -20 -6 -68 16 -152 70 -57 36 -71 41 -59 23
4 -7 2 -10 -3 -8 -28 11 -933 543 -929 546 2 3 14 0 25 -7 12 -6 21 -8 21 -6
0 3 -14 13 -31 22 -17 8 -28 11 -25 5 11 -18 -3 -13 -60 20 -30 17 -52 35 -49
40 4 5 0 7 -7 4 -7 -3 -143 71 -303 164 -193 112 -292 165 -297 157 -4 -6 -8
-216 -8 -467 0 -422 1 -457 17 -471 10 -8 106 -68 213 -133 703 -426 715 -433
1395 -850 160 -98 358 -219 440 -270 83 -51 177 -104 210 -118 106 -43 196
-69 222 -64 14 3 44 -1 67 -8 23 -8 99 -26 170 -41 115 -25 126 -29 110 -41
-11 -8 -30 -24 -44 -35 l-25 -20 29 17 c16 10 44 26 62 37 35 20 96 16 75 -5
-23 -23 -9 -27 28 -8 21 11 51 18 67 16 16 -2 35 -4 43 -4 10 -1 11 -4 2 -15
-18 -21 26 -28 63 -10 l31 15 -25 -20 c-30 -25 -20 -27 23 -4 30 15 31 15 18
0 -7 -10 -10 -17 -6 -17 5 0 1 -8 -8 -18 -15 -16 -15 -18 3 -18 10 0 17 4 14
7 -2 4 0 10 6 14 9 6 15 -8 11 -29 -1 -5 6 -3 16 4 28 22 29 24 10 17 -11 -4
-16 -3 -12 4 4 6 14 8 22 4 9 -3 25 2 37 12 15 13 14 10 -4 -11 l-25 -29 32
18 c25 15 35 16 46 6 12 -9 18 -9 28 1 27 26 82 62 74 47 -5 -7 4 -2 18 12 74
72 156 103 178 67 6 -9 13 -9 31 -1 13 6 31 11 41 11 13 -1 10 -8 -15 -29 -18
-15 -37 -25 -41 -22 -4 3 -15 -1 -23 -8 -13 -10 -17 -10 -26 2 -8 12 -9 12 -5
-1 2 -8 -3 -20 -12 -27 -12 -9 -13 -14 -4 -24 9 -9 18 -8 40 5 28 17 28 17 -3
-11 -17 -15 -48 -43 -70 -61 -58 -48 0 -12 111 68 152 112 144 108 167 79 11
-13 17 -19 14 -13 -3 6 8 10 29 10 18 -1 31 -4 28 -9 -4 -7 -56 -43 -227 -160
-39 -27 -75 -53 -81 -59 -14 -16 7 -3 93 55 41 27 75 47 78 45 4 -5 -80 -77
-110 -95 -12 -7 -16 -12 -9 -13 6 0 34 18 62 40 56 44 74 52 45 18 -17 -20
-16 -20 13 2 18 14 32 29 32 34 1 5 -7 2 -16 -5 -16 -13 -17 -12 -5 3 10 13
10 17 0 20 -8 3 -5 9 9 16 14 8 24 9 28 2 3 -5 -1 -10 -10 -10 -9 0 -13 -4
-10 -10 9 -15 19 -12 42 9 12 11 24 17 29 13 4 -4 4 -2 0 5 -7 12 31 39 41 29
3 -2 17 0 32 5 25 9 25 8 6 -6 -11 -9 -25 -13 -31 -11 -7 3 -18 -3 -26 -12
-12 -16 -11 -16 6 -2 18 14 19 13 13 -2 -8 -23 -2 -23 41 4 20 12 32 16 27 8
-6 -10 -4 -12 9 -7 9 4 15 3 11 -2 -10 -17 20 -18 45 -2 l25 15 -24 -27 c-23
-26 -49 -38 -36 -17 3 6 2 10 -4 10 -5 0 -13 -5 -16 -10 -3 -6 -11 -10 -18
-10 -6 0 -2 7 9 15 10 8 14 15 7 15 -11 0 -28 -18 -28 -32 0 -3 -3 -10 -7 -14
-7 -7 -12 9 -9 29 2 11 -14 8 -27 -5 -8 -8 -15 -8 -25 1 -11 9 -19 7 -38 -9
-21 -19 -22 -20 -3 -11 22 10 34 6 34 -12 0 -6 -3 -8 -6 -4 -4 3 -19 0 -35 -8
-37 -19 -45 -19 -28 2 12 14 10 14 -14 -1 -31 -21 -35 -28 -9 -19 14 6 15 4 5
-8 -10 -12 -8 -15 7 -15 10 0 16 4 14 8 -3 4 4 12 15 17 26 14 34 14 25 -1 -4
-7 2 -5 13 5 11 9 23 14 26 11 4 -4 13 -1 22 6 9 7 18 10 22 6 4 -3 -2 -13
-13 -22 -19 -15 -19 -15 1 -5 11 5 29 19 39 30 22 24 41 28 33 6 -4 -8 -1 -17
4 -21 14 -8 44 21 44 43 0 10 9 17 25 18 14 1 34 6 44 10 14 6 17 5 12 -4 -6
-8 2 -7 22 3 36 19 69 12 51 -10 -10 -12 -8 -13 7 -8 13 4 9 -3 -11 -21 l-30
-27 32 21 c41 27 51 27 27 -1 -17 -21 -16 -20 9 1 21 19 30 22 39 13 7 -7 16
-12 22 -12 5 0 2 6 -9 13 -14 11 -15 16 -5 22 9 6 11 4 5 -5 -5 -8 -3 -11 6
-8 8 3 13 11 11 17 -1 8 2 9 10 4 14 -8 46 -13 91 -14 44 0 80 -17 73 -34 -4
-12 -2 -13 12 -6 19 10 125 8 161 -4 19 -6 20 -9 9 -22 -12 -14 -11 -15 9 -5
27 15 36 15 27 1 -4 -7 1 -7 16 1 39 21 161 6 147 -17 -3 -5 37 -9 89 -10 52
-1 94 3 94 8 0 5 -17 25 -37 44 -24 22 -31 33 -18 28 17 -6 18 -5 5 9 -10 11
-20 13 -32 7 -22 -12 -31 -11 -23 1 3 6 -5 10 -19 10 -46 0 -126 23 -126 37 0
17 32 16 100 -2 62 -17 140 -20 105 -5 -11 5 -68 24 -128 42 -72 22 -106 37
-102 46 4 12 -16 16 -62 12 -13 -1 -23 4 -23 10 0 6 -4 9 -9 6 -12 -8 -72 5
-66 14 2 4 -11 12 -30 18 -20 6 -35 6 -35 1 0 -5 -5 -9 -11 -9 -5 0 -7 5 -4
10 3 6 0 10 -8 10 -8 0 -17 -7 -21 -15 -8 -22 -29 -18 -23 4 4 16 -2 21 -37
27 -22 4 -43 8 -46 9 -66 15 -72 18 -59 26 11 7 11 9 1 9 -8 0 -10 5 -6 13 4
7 3 9 -2 4 -5 -5 -9 -14 -9 -20 0 -14 -7 -13 -90 4 -33 7 -63 12 -67 11 -5 -1
-8 2 -8 7 0 5 -10 7 -22 4 -23 -5 -23 -5 -3 12 19 16 19 17 -6 2 -17 -10 -36
-13 -58 -8 l-33 6 96 68 c53 37 96 70 96 72 0 6 -33 -15 -133 -83 -82 -56
-127 -68 -61 -15 21 16 115 83 208 147 93 65 176 124 183 132 8 8 19 14 24 14
5 0 9 5 9 10 0 10 -106 -60 -340 -225 -63 -44 -127 -86 -141 -92 -24 -10 -26
-10 -22 8 4 15 2 18 -11 13 -9 -3 -16 -10 -16 -15 0 -5 -6 -9 -12 -9 -7 1 -2
9 11 20 12 11 26 18 31 15 9 -6 95 73 88 81 -3 3 -29 -11 -57 -31 -29 -21 -56
-33 -62 -29 -8 4 -9 3 -5 -4 9 -14 -22 -31 -55 -29 -16 1 -25 7 -22 14 4 10
10 10 25 2 14 -7 18 -7 14 -1 -4 6 1 15 10 20 11 6 13 11 5 16 -6 4 -11 3 -11
-3 0 -5 -18 -12 -40 -16 -22 -4 -42 -11 -46 -16 -3 -5 -10 -9 -17 -9 -6 0 12
16 41 35 29 20 58 33 64 29 6 -4 8 -3 5 3 -4 6 93 79 215 163 l222 153 76 -40
c41 -21 128 -68 193 -102 64 -35 117 -61 117 -58 0 3 -33 23 -72 45 -40 21
-126 69 -191 106 -65 36 -121 66 -124 66 -4 0 -16 -8 -27 -19 -32 -28 -452
-310 -467 -313 -8 -2 -13 3 -12 9 2 7 0 12 -5 12 -20 -3 -32 2 -32 16 0 8 7
15 15 15 8 0 15 7 15 16 0 10 -6 14 -15 10 -10 -3 -15 1 -15 13 0 12 7 18 18
17 13 -1 17 7 17 29 0 21 7 33 23 41 18 9 20 13 9 22 -8 7 -17 9 -21 5 -4 -4
-4 1 0 11 6 15 4 17 -6 11 -8 -5 -11 -4 -6 3 4 6 13 9 21 6 13 -6 39 29 29 39
-3 3 3 4 12 4 11 -1 20 6 22 17 3 11 0 16 -7 11 -6 -3 -9 -11 -6 -16 3 -5 -1
-6 -9 -3 -12 5 -9 11 13 30 16 13 33 24 37 24 5 0 1 -7 -9 -14 -12 -10 -15
-16 -7 -21 6 -4 17 1 24 11 9 12 15 14 20 6 4 -7 13 -12 19 -12 12 0 146 93
157 109 3 4 26 19 53 35 26 15 45 31 42 36 -6 10 -79 -22 -90 -40 -4 -6 -11
-8 -16 -5 -5 4 -9 2 -9 -3 0 -8 -73 -62 -84 -62 -2 0 -7 7 -10 16 -5 12 -2 15
9 10 9 -3 14 -2 11 3 -3 4 9 18 26 31 26 19 30 20 24 5 -5 -15 -4 -16 8 -5 9
6 14 17 13 23 -1 7 8 12 20 12 12 0 26 5 30 9 4 5 2 6 -4 2 -7 -4 -13 -3 -13
2 0 14 63 63 75 58 5 -3 50 -21 98 -42 87 -36 88 -36 130 -21 23 9 63 21 88
26 25 6 54 13 64 17 14 6 16 4 10 -7 -5 -8 -5 -11 1 -6 5 5 9 14 9 19 0 6 6
13 14 16 9 3 11 0 5 -9 -4 -7 15 6 44 31 40 35 48 46 37 53 -9 4 -20 5 -26 1
-6 -3 -14 -2 -18 4 -7 11 -207 122 -221 122 -5 0 -12 5 -16 11 -5 8 7 10 42 6
l49 -6 -44 11 c-38 10 -54 8 -125 -14 -44 -15 -92 -29 -105 -33 l-24 -7 20 33
c12 19 24 50 28 69 4 19 16 51 26 70 12 22 15 36 8 40 -6 4 1 14 16 24 15 10
34 25 43 34 10 10 32 28 50 40 l32 24 -20 28 c-11 15 -20 34 -20 41 0 7 -7 20
-16 30 -14 15 -16 78 -19 501 -2 265 -4 492 -6 503 -1 11 -2 171 -1 355 l2
335 228 151 c125 83 238 158 252 167 126 83 176 129 164 148 -3 5 0 9 7 9 8 0
7 5 -2 17 -10 11 -10 14 -1 9 19 -12 14 8 -8 26 -19 17 -22 16 -77 -21 -258
-171 -556 -361 -561 -357 -2 3 -5 196 -6 428 l-2 423 -139 63 c-77 35 -475
230 -885 433 -410 203 -734 360 -720 349 14 -11 37 -25 53 -32 15 -7 27 -16
27 -20 0 -12 -368 166 -480 232 l-46 27 -1026 -511z m1302 308 c91 -47 514
-261 940 -476 426 -215 776 -391 777 -392 3 -2 -404 -226 -411 -226 -3 0 -7
47 -8 104 l-3 104 -125 -74 c-69 -41 -129 -74 -135 -74 -5 1 -86 38 -180 84
-93 46 -173 81 -177 79 -5 -2 -8 -105 -8 -227 l0 -223 -30 -6 c-39 -8 -38 -25
1 -39 26 -9 30 -15 27 -41 -2 -25 -12 -36 -48 -57 l-46 -27 -2 291 c-2 159 -4
292 -6 293 -2 2 -11 -3 -20 -12 -9 -9 -16 -13 -16 -10 0 7 -132 -61 -362 -189
l-148 -81 0 -290 0 -291 -30 -17 c-22 -14 -30 -15 -30 -5 -1 8 -6 6 -15 -6
-14 -19 -15 -18 -24 5 -9 23 -10 22 -10 -8 -1 -37 -15 -43 -33 -13 -15 24 -28
26 -28 5 0 -9 7 -18 15 -21 12 -5 13 -10 4 -20 -18 -22 -25 -17 -37 24 -8 26
-10 29 -8 10 2 -16 -2 -28 -8 -28 -6 0 -4 -5 4 -10 13 -8 12 -11 -5 -24 -11
-8 -28 -13 -37 -11 -10 3 -27 7 -37 10 -11 3 -22 1 -26 -4 -4 -7 -10 -7 -18
-1 -7 6 -24 20 -40 31 -15 11 -25 25 -22 30 4 5 1 9 -4 9 -6 0 -11 6 -11 13 0
15 58 20 75 7 6 -4 25 -7 42 -5 18 1 30 -1 27 -6 -14 -23 -11 -47 6 -52 22 -6
30 10 31 66 1 23 3 34 6 25 5 -19 33 -25 33 -8 0 6 -9 19 -20 30 -14 14 -20
33 -20 65 0 49 6 55 26 28 14 -20 18 -18 29 17 7 22 6 23 -9 11 -10 -8 -16 -9
-16 -3 0 6 -6 9 -14 6 -8 -3 -16 2 -19 13 -3 10 -5 -40 -6 -112 -1 -71 -5
-124 -9 -118 -4 7 -9 195 -11 418 l-3 404 46 23 46 22 0 353 0 353 -22 0 c-16
0 -19 3 -11 11 11 11 47 -5 133 -60 15 -10 21 -11 17 -3 -5 6 -4 12 0 12 5 0
15 -6 23 -12 12 -11 12 -10 2 3 -6 9 -43 28 -82 44 -39 16 -68 30 -66 32 2 3
26 -5 52 -16 53 -24 72 -21 25 4 -17 8 -31 18 -31 21 0 8 58 -25 66 -37 11
-18 74 -40 96 -33 19 6 19 6 -3 22 -12 8 -38 21 -57 27 -19 7 -30 15 -25 18 5
3 21 0 36 -8 14 -7 35 -11 45 -8 10 2 24 -3 31 -11 8 -9 18 -16 24 -16 6 0 -5
14 -24 31 -19 18 -27 28 -19 24 8 -4 24 -16 35 -26 13 -11 25 -15 34 -10 9 6
-7 19 -52 45 -36 20 -71 36 -79 37 -9 0 -9 2 -1 5 7 3 46 -13 88 -35 80 -43
85 -45 85 -33 0 4 -34 25 -75 46 -41 22 -75 43 -75 48 0 4 -5 8 -11 8 -5 0 -7
-4 -4 -10 3 -5 -1 -10 -10 -10 -8 0 -44 -14 -78 -32 -92 -48 -125 -62 -109
-47 8 9 12 58 12 171 0 87 1 158 3 158 1 0 76 -39 167 -86z m316 -90 c18 -14
18 -14 -6 -3 -31 14 -36 19 -24 19 6 0 19 -7 30 -16z m-342 -133 c-2 -3 -12 3
-22 13 -16 17 -16 18 5 5 12 -7 20 -15 17 -18z m26 14 c0 -8 -2 -15 -4 -15 -2
0 -6 7 -10 15 -3 8 -1 15 4 15 6 0 10 -7 10 -15z m-50 -25 c8 -5 11 -10 5 -10
-5 0 -17 5 -25 10 -8 5 -10 10 -5 10 6 0 17 -5 25 -10z m85 0 c3 -6 -1 -7 -9
-4 -18 7 -21 14 -7 14 6 0 13 -4 16 -10z m-5 -50 c19 -11 32 -19 29 -20 -11 0
-79 30 -79 35 0 9 14 5 50 -15z m-353 -8 c-10 -10 -14 -23 -10 -27 5 -5 0 -3
-10 4 -17 13 -16 15 5 26 32 18 33 18 15 -3z m-42 -52 c-4 -6 -2 -17 4 -24 9
-11 4 -18 -24 -35 -36 -21 -64 -30 -35 -11 13 8 12 10 -2 10 -10 0 -18 -7 -18
-15 0 -8 -4 -15 -10 -15 -5 0 -10 7 -10 15 0 8 5 15 11 15 5 0 8 4 5 8 -3 5 5
8 17 8 13 -1 22 5 22 14 0 8 9 20 20 27 25 15 28 16 20 3z m45 -35 c0 -8 -4
-17 -10 -20 -6 -4 -10 5 -10 20 0 15 4 24 10 20 6 -3 10 -12 10 -20z m-67
-212 c-6 -54 -23 -66 -23 -17 0 23 3 44 7 47 15 15 20 5 16 -30z m-55 -10
c-19 -44 -28 -49 -28 -17 0 33 6 44 26 44 11 0 11 -6 2 -27z m-66 -38 c-5 -29
-32 -34 -32 -6 0 17 11 28 31 30 3 1 4 -10 1 -24z m18 -75 c0 -5 -9 -10 -20
-10 -11 0 -20 5 -20 10 0 6 9 10 20 10 11 0 20 -4 20 -10z m50 -30 c0 -5 -4
-10 -10 -10 -5 0 -10 5 -10 10 0 6 5 10 10 10 6 0 10 -4 10 -10z m60 -39 c0
-6 -4 -13 -10 -16 -5 -3 -10 1 -10 9 0 9 5 16 10 16 6 0 10 -4 10 -9z m0 -60
c0 -6 -4 -13 -10 -16 -5 -3 -10 1 -10 9 0 9 5 16 10 16 6 0 10 -4 10 -9z m-70
-46 c0 -8 -4 -15 -10 -15 -5 0 -10 7 -10 15 0 8 5 15 10 15 6 0 10 -7 10 -15z
m-55 -15 c-3 -5 -14 -10 -23 -10 -15 0 -15 2 -2 10 20 13 33 13 25 0z m260 0
c3 -5 1 -10 -4 -10 -6 0 -11 5 -11 10 0 6 2 10 4 10 3 0 8 -4 11 -10z m975
-36 c0 -15 -6 -24 -15 -24 -10 0 -15 10 -15 30 0 22 4 28 15 24 8 -4 15 -17
15 -30z m-1112 4 c-2 -12 -9 -23 -16 -26 -10 -3 -11 16 -3 46 1 1 6 2 12 2 6
0 9 -10 7 -22z m1190 -8 c35 -16 42 -24 42 -47 0 -42 -14 -60 -34 -44 -9 8
-16 22 -16 33 0 24 -26 52 -35 38 -9 -15 -25 -2 -25 21 0 24 14 24 68 -1z
m996 -6 c14 -5 16 -52 16 -420 l0 -414 -67 -44 -68 -44 -5 237 c-3 130 -7 237
-8 238 -1 1 -24 -13 -52 -30 -94 -61 -121 -77 -130 -77 -5 0 -30 -13 -56 -30
-26 -16 -50 -27 -55 -25 -4 3 -9 -3 -12 -12 -3 -13 -7 -8 -12 14 -5 23 -15 35
-37 42 -16 6 -41 19 -56 30 -20 14 -32 17 -45 10 -13 -8 -17 -6 -17 8 0 20
-72 56 -94 47 -8 -3 -16 4 -19 16 -3 11 -9 20 -14 19 -33 -6 -9 9 105 65 74
37 138 63 149 60 10 -3 28 -1 39 3 18 7 20 12 12 33 -7 18 -11 21 -17 11 -6
-10 -10 -9 -15 4 -5 15 -9 15 -24 4 -15 -12 -16 -11 -2 4 14 15 447 256 462
257 3 0 13 -3 22 -6z m-850 -65 l66 -31 0 -68 c0 -38 -4 -71 -9 -74 -13 -8
-29 15 -32 49 -2 17 -11 44 -20 60 -13 25 -21 29 -46 27 -28 -3 -31 -1 -35 32
-2 20 -1 36 3 36 4 0 37 -14 73 -31z m-2024 -24 c0 -9 -82 -46 -93 -42 -7 3 8
14 33 25 47 22 60 25 60 17z m1630 1 c0 -3 -4 -8 -10 -11 -5 -3 -10 -1 -10 4
0 6 5 11 10 11 6 0 10 -2 10 -4z m-930 -46 c-11 -11 -24 -20 -29 -20 -5 0 -8
-8 -6 -17 1 -10 0 -12 -2 -5 -5 15 -6 15 -37 1 -14 -7 -23 -16 -19 -22 3 -6 1
-7 -6 -3 -6 4 -23 1 -36 -8 -28 -18 -35 -20 -35 -7 0 5 15 16 33 25 17 9 55
30 82 46 59 34 83 38 55 10z m1435 10 c3 -5 1 -10 -4 -10 -6 0 -11 5 -11 10 0
6 2 10 4 10 3 0 8 -4 11 -10z m68 -30 c-7 -28 -23 -36 -23 -11 0 10 6 22 13
24 6 3 13 6 14 6 0 1 -1 -8 -4 -19z m-405 -23 c5 -39 -24 -36 -30 3 -4 24 -1
30 11 28 9 -2 17 -15 19 -31z m-441 -39 c-2 -13 -4 -3 -4 22 0 25 2 35 4 23 2
-13 2 -33 0 -45z m-27 25 c0 -34 -20 -75 -39 -81 -10 -3 -12 2 -7 22 3 14 2
26 -3 26 -5 0 -12 -15 -15 -34 -8 -41 -36 -71 -36 -38 0 12 -4 23 -9 26 -5 3
-9 0 -8 -7 1 -33 -5 -47 -24 -57 -19 -11 -20 -9 -17 40 l3 52 70 38 c39 21 73
38 78 39 4 1 7 -11 7 -26z m540 4 c43 -21 45 -24 44 -62 -1 -22 -2 -55 -3 -72
-1 -26 -5 -33 -22 -33 -17 0 -20 4 -14 28 5 23 1 31 -19 42 -24 12 -44 46 -33
56 2 3 16 0 31 -6 36 -13 25 5 -15 25 -16 9 -29 22 -29 30 0 19 6 19 60 -8z
m-1890 -6 c0 -10 -9 -21 -20 -24 -11 -3 -20 0 -20 6 0 7 -5 5 -10 -3 -8 -13
-10 -13 -10 1 0 9 10 21 23 27 32 15 37 14 37 -7z m2165 -1 c-3 -5 -10 -10
-16 -10 -5 0 -9 5 -9 10 0 6 7 10 16 10 8 0 12 -4 9 -10z m-2839 -19 c-4 -5 0
-11 6 -14 7 -2 0 -4 -16 -4 -28 0 -28 0 -11 13 22 16 28 18 21 5z m2904 -10
c0 -5 -7 -12 -16 -15 -14 -5 -15 -4 -4 9 14 17 20 19 20 6z m-413 -23 c-3 -8
-6 -5 -6 6 -1 11 2 17 5 13 3 -3 4 -12 1 -19z m228 -10 l68 -31 -23 -19 c-29
-24 -34 -23 -55 8 -10 15 -22 23 -31 20 -10 -4 -12 -2 -8 6 5 8 2 9 -9 5 -13
-5 -17 -1 -17 18 0 14 2 25 4 25 2 0 34 -14 71 -32z m-1345 8 c0 -3 -4 -8 -10
-11 -5 -3 -10 -1 -10 4 0 6 5 11 10 11 6 0 10 -2 10 -4z m-50 -15 c0 -5 -7
-14 -15 -21 -12 -10 -15 -10 -15 2 0 8 3 18 7 21 9 10 23 9 23 -2z m1510 5 c0
-3 -4 -8 -10 -11 -5 -3 -10 -1 -10 4 0 6 5 11 10 11 6 0 10 -2 10 -4z m-662
-98 c-29 -21 -34 -9 -14 31 9 16 16 38 17 48 1 10 5 0 10 -22 9 -35 7 -41 -13
-57z m-1388 67 c0 -2 -15 -12 -32 -20 l-33 -16 25 20 c24 20 40 26 40 16z
m1442 -27 c-8 -8 -9 -4 -5 13 4 13 8 18 11 10 2 -7 -1 -18 -6 -23z m446 10
c18 -18 15 -36 -8 -48 -18 -10 -20 -8 -20 25 0 37 8 43 28 23z m-1418 -8 c0
-5 -5 -10 -11 -10 -5 0 -7 5 -4 10 3 6 8 10 11 10 2 0 4 -4 4 -10z m760 0 c0
-5 -5 -10 -11 -10 -5 0 -7 5 -4 10 3 6 8 10 11 10 2 0 4 -4 4 -10z m290 -30
l-8 -35 -1 31 c-1 17 2 34 6 37 11 12 12 3 3 -33z m-1520 25 c0 -2 -10 -9 -22
-15 -22 -11 -22 -10 -4 4 21 17 26 19 26 11z m1765 -5 c3 -5 -1 -10 -9 -10 -8
0 -18 5 -21 10 -3 6 1 10 9 10 8 0 18 -4 21 -10z m160 1 c3 -5 1 -12 -5 -16
-5 -3 -10 1 -10 9 0 18 6 21 15 7z m-2022 -24 c-4 -6 2 -8 15 -5 13 4 20 2 19
-5 -1 -6 8 -13 21 -15 14 -2 22 -10 22 -22 0 -23 -16 -35 -23 -18 -3 8 -6 6
-6 -5 -1 -17 -47 -66 -63 -67 -5 0 -8 7 -8 15 0 8 -7 15 -15 15 -8 0 -15 -5
-15 -11 0 -5 -5 -7 -10 -4 -6 4 -8 10 -5 15 10 16 -16 22 -46 9 -23 -9 -27
-14 -17 -21 10 -8 10 -9 -1 -6 -28 8 -20 36 15 53 20 9 32 21 28 28 -3 7 2 3
10 -7 9 -11 16 -14 16 -8 0 8 9 10 25 6 21 -5 25 -3 25 16 0 12 -10 30 -22 39
-22 18 -22 18 10 13 19 -2 29 -9 25 -15z m1267 4 c-13 -26 -27 -34 -35 -20 -4
5 1 17 11 24 27 20 36 18 24 -4z m313 -9 c-3 -12 -9 -22 -14 -22 -14 0 -11 38
4 43 16 6 17 5 10 -21z m692 18 c-3 -5 -12 -10 -18 -10 -7 0 -6 4 3 10 19 12
23 12 15 0z m-955 -10 c0 -5 -4 -10 -10 -10 -5 0 -10 5 -10 10 0 6 5 10 10 10
6 0 10 -4 10 -10z m-100 -19 c0 -6 -5 -13 -10 -16 -8 -5 -7 -11 1 -21 10 -12
9 -13 -5 -8 -10 4 -16 1 -17 -7 0 -8 -5 -1 -10 16 -6 20 -5 32 4 37 17 11 37
10 37 -1z m120 -40 c0 -11 -8 -27 -17 -37 -17 -17 -18 -17 -21 5 -4 22 13 51
29 51 5 0 9 -9 9 -19z m480 -12 c0 -10 -7 -19 -15 -19 -16 0 -19 9 -9 34 8 20
24 11 24 -15z m53 11 c13 -1 -22 -30 -35 -30 -4 0 -8 9 -8 21 0 15 4 19 16 15
9 -3 21 -6 27 -6z m-1603 -47 c0 -7 -4 -13 -10 -13 -5 0 -10 6 -10 14 0 8 -8
13 -17 12 -10 0 -19 7 -21 18 -4 18 -3 18 27 0 17 -10 31 -24 31 -31z m277 25
c-3 -8 -6 -5 -6 6 -1 11 2 17 5 13 3 -3 4 -12 1 -19z m715 -38 c-30 -28 -39 3
-9 33 20 20 22 20 25 3 2 -10 -5 -26 -16 -36z m836 12 c3 -31 2 -32 -21 -21
-18 8 -23 17 -19 35 7 37 36 27 40 -14z m-1795 -29 c5 -26 4 -26 -9 -8 -15 21
-19 49 -5 41 5 -3 11 -18 14 -33z m917 -3 c0 -29 -5 -42 -20 -50 -16 -9 -20
-8 -20 6 0 10 8 26 18 37 9 11 11 17 3 12 -8 -4 -17 -2 -22 6 -5 9 -3 16 9 21
29 12 32 9 32 -32z m-533 -12 c-3 -7 -5 -2 -5 12 0 14 2 19 5 13 2 -7 2 -19 0
-25z m1295 6 c-3 -17 -8 -22 -15 -15 -7 7 -6 15 3 26 17 20 18 19 12 -11z
m-1939 3 c3 -7 2 -26 -1 -43 l-6 -29 -7 25 c-10 36 -10 60 0 60 5 0 11 -6 14
-13z m2006 -6 c11 -11 22 -17 25 -13 3 3 6 1 6 -4 0 -6 -5 -15 -11 -21 -8 -8
-5 -14 10 -22 30 -17 26 -33 -5 -19 -20 9 -24 17 -19 35 4 19 2 23 -12 21 -13
-2 -17 2 -15 16 3 17 2 18 -12 7 -14 -11 -16 -11 -16 3 0 22 26 20 49 -3z
m-2076 -5 c40 -30 -4 -30 -48 0 -19 14 -19 14 5 14 14 0 33 -7 43 -14z m1434
-18 c-3 -7 -5 -2 -5 12 0 14 2 19 5 13 2 -7 2 -19 0 -25z m-1304 8 c3 -6 -4
-23 -15 -36 -22 -27 -38 -15 -31 24 5 23 38 33 46 12z m1237 -15 c0 -11 -8
-27 -17 -37 -17 -17 -18 -17 -21 5 -4 22 13 51 29 51 5 0 9 -9 9 -19z m145
-26 c1 -27 -12 -34 -21 -10 -7 18 4 51 13 41 4 -3 7 -17 8 -31z m71 20 c-23
-18 -36 -19 -36 -4 0 5 4 8 9 4 5 -3 12 -1 16 5 3 5 12 10 18 10 7 0 3 -7 -7
-15z m344 5 c0 -5 -5 -10 -11 -10 -5 0 -7 5 -4 10 3 6 8 10 11 10 2 0 4 -4 4
-10z m-1340 -16 c0 -8 -5 -12 -10 -9 -6 4 -8 11 -5 16 9 14 15 11 15 -7z m704
-21 c-16 -12 -16 -13 -1 -13 22 0 22 -26 1 -34 -21 -8 -25 -4 -27 23 -1 11 -3
21 -4 21 -5 0 -26 -54 -25 -62 1 -5 -4 -8 -12 -8 -9 0 -13 10 -12 31 1 25 9
34 46 53 45 23 70 15 34 -11z m353 5 c-3 -7 -5 -2 -5 12 0 14 2 19 5 13 2 -7
2 -19 0 -25z m-1847 -9 c0 -5 -4 -9 -10 -9 -5 0 -10 7 -10 16 0 8 5 12 10 9 6
-3 10 -10 10 -16z m2220 7 c0 -7 -7 -19 -15 -26 -13 -11 -15 -8 -15 14 0 16 5
26 15 26 8 0 15 -6 15 -14z m96 -67 l1 -28 -28 16 c-16 10 -29 23 -29 29 0 7
-7 14 -15 18 -8 3 -15 12 -15 21 0 12 7 11 43 -6 34 -17 42 -26 43 -50z m129
53 c-3 -3 -11 0 -18 7 -9 10 -8 11 6 5 10 -3 15 -9 12 -12z m-2496 -18 c2 -2
-7 -4 -21 -4 -15 0 -29 -6 -31 -12 -3 -7 -6 -3 -6 10 -1 19 3 22 27 16 15 -4
29 -8 31 -10z m2491 0 c0 -2 -7 -4 -15 -4 -8 0 -15 4 -15 10 0 5 7 7 15 4 8
-4 15 -8 15 -10z m49 7 c15 -10 25 -41 13 -41 -14 1 -56 29 -44 30 7 0 10 5 7
10 -8 12 5 13 24 1z m-2809 -15 c0 -2 -7 -7 -16 -10 -8 -3 -12 -2 -9 4 6 10
25 14 25 6z m1370 0 c0 -3 -4 -8 -10 -11 -5 -3 -10 -1 -10 4 0 6 5 11 10 11 6
0 10 -2 10 -4z m520 -11 c0 -2 -10 -9 -22 -15 -22 -11 -22 -10 -4 4 21 17 26
19 26 11z m580 -15 c0 -5 -4 -10 -10 -10 -5 0 -10 5 -10 10 0 6 5 10 10 10 6
0 10 -4 10 -10z m-640 -29 c0 -36 -36 -51 -46 -19 -3 11 -4 21 -2 22 5 4 43
25 46 26 1 0 2 -13 2 -29z m-1920 -6 c-7 -9 -15 -13 -19 -10 -3 3 1 10 9 15
21 14 24 12 10 -5z m1120 6 c0 -6 -4 -13 -10 -16 -5 -3 -10 1 -10 9 0 9 5 16
10 16 6 0 10 -4 10 -9z m850 5 c0 -2 -7 -6 -15 -10 -8 -3 -15 -1 -15 4 0 6 7
10 15 10 8 0 15 -2 15 -4z m733 -15 c4 -1 12 -1 18 -1 6 0 9 -6 6 -14 -3 -8
-1 -17 6 -19 7 -2 9 -7 5 -11 -3 -4 -24 9 -45 29 -21 21 -29 33 -18 27 11 -5
23 -10 28 -11z m132 9 c3 -6 -1 -7 -9 -4 -18 7 -21 14 -7 14 6 0 13 -4 16 -10z
m-986 -46 c-15 -29 -25 -30 -32 -4 -3 13 2 25 16 35 27 19 35 3 16 -31z m1216
36 c3 -5 1 -10 -4 -10 -6 0 -11 5 -11 10 0 6 2 10 4 10 3 0 8 -4 11 -10z
m-165 -15 c14 -8 21 -14 15 -14 -5 0 -21 6 -35 14 -14 8 -20 14 -15 14 6 0 21
-6 35 -14z m-680 0 c0 -2 -10 -9 -22 -15 -22 -11 -22 -10 -4 4 21 17 26 19 26
11z m324 -1 c10 -4 16 -18 16 -35 0 -38 -26 -29 -32 12 -3 16 -3 29 -2 29 1 0
9 -3 18 -6z m496 -9 c0 -8 -4 -15 -10 -15 -5 0 -7 7 -4 15 4 8 8 15 10 15 2 0
4 -7 4 -15z m-1760 -26 c0 -6 -4 -7 -10 -4 -5 3 -10 11 -10 16 0 6 5 7 10 4 6
-3 10 -11 10 -16z m890 6 c0 -3 -28 -19 -62 -37 -75 -39 -98 -49 -98 -43 0 4
147 82 158 85 1 0 2 -2 2 -5z m-1655 -34 c-3 -6 -10 -9 -15 -6 -10 6 -58 -15
-133 -59 -47 -28 -48 -30 -30 -46 10 -10 80 -49 155 -88 l137 -70 9 27 c10 27
8 30 -36 50 -26 12 -58 31 -72 41 l-25 19 23 16 c16 12 21 23 17 36 -5 13 -2
19 10 19 9 0 13 -4 10 -10 -3 -5 -1 -10 4 -10 6 0 11 7 11 16 0 12 6 15 25 10
19 -5 23 -3 18 9 -5 16 22 44 42 44 6 1 -1 -8 -14 -18 -16 -12 -20 -21 -12
-25 6 -4 11 -2 11 4 0 6 15 17 33 25 26 11 40 11 70 2 21 -7 35 -17 33 -24 -7
-17 5 -23 19 -10 11 10 10 15 -3 31 -16 18 -16 18 5 7 31 -16 36 -28 16 -41
-16 -10 -16 -11 -1 -6 35 11 27 -14 -12 -39 l-42 -26 50 -25 c55 -27 63 -50
20 -59 -15 -4 -26 -11 -23 -16 4 -5 0 -6 -8 -3 -19 7 -48 -33 -40 -54 4 -10 2
-13 -5 -8 -7 4 -12 1 -12 -9 0 -9 -6 -23 -14 -30 -11 -11 -22 -8 -70 21 -60
36 -76 41 -76 23 0 -5 -4 -7 -10 -4 -5 3 -10 0 -10 -8 0 -17 41 -37 87 -43 19
-2 60 -15 93 -29 33 -14 67 -22 77 -18 36 12 213 115 213 124 0 5 -16 -3 -36
-16 -20 -14 -43 -25 -50 -25 -7 0 -28 -9 -48 -20 -23 -15 -36 -17 -41 -10 -4
6 -4 14 -1 17 3 4 6 1 6 -5 0 -6 7 -9 15 -6 8 4 15 16 15 28 0 13 3 16 8 9 5
-8 12 -7 27 4 15 12 16 14 3 10 -9 -3 -19 0 -22 8 -3 9 4 17 17 21 12 3 32 13
45 20 19 13 21 18 11 37 -14 26 -29 87 -21 87 25 0 442 -240 442 -255 0 -3
-20 5 -46 17 -32 16 -47 19 -52 11 -4 -6 -45 -30 -92 -52 -46 -23 -81 -41 -76
-41 4 0 4 -5 0 -12 -4 -6 -7 -39 -6 -72 1 -53 0 -57 -8 -26 -13 54 -16 145 -5
145 19 2 180 88 169 92 -17 6 -205 -98 -198 -109 4 -6 2 -8 -4 -4 -6 3 -21 1
-34 -4 -20 -10 -23 -17 -19 -56 2 -36 -1 -50 -18 -65 -11 -10 -25 -19 -31 -19
-8 0 -16 63 -11 93 1 4 -9 3 -21 -4 -33 -17 -37 -23 -10 -14 23 7 23 6 20 -62
-3 -62 -5 -68 -25 -71 -20 -3 -23 1 -23 34 0 52 -18 31 -22 -25 -2 -37 -7 -45
-25 -47 -15 -3 -23 1 -23 11 0 8 6 15 13 16 10 0 10 2 0 6 -7 2 -13 21 -13 40
0 20 -2 34 -5 31 -3 -3 -6 -30 -6 -60 -1 -52 -2 -55 -25 -50 -13 2 -27 15 -33
31 l-9 26 -1 -27 c-1 -17 -7 -28 -15 -28 -8 0 -21 -3 -30 -6 -12 -5 -16 1 -16
24 0 24 6 32 30 42 17 7 33 17 36 22 3 4 -15 -2 -40 -14 -49 -24 -49 -22 -61
-140 l-6 -56 -28 16 c-26 14 -29 23 -39 106 -12 93 -32 140 -32 74 0 -51 -11
-99 -21 -92 -5 3 -9 20 -9 37 0 18 -7 45 -15 61 -8 15 -15 36 -14 45 0 12 2
12 9 -4 7 -15 9 -16 9 -4 1 17 -128 101 -141 92 -5 -2 -8 -22 -8 -44 0 -24 -4
-38 -10 -34 -5 3 -10 29 -10 56 0 32 -4 48 -10 44 -6 -4 -8 -16 -4 -27 7 -24
-4 -93 -14 -83 -4 4 -9 37 -12 73 l-5 67 -87 48 c-78 43 -88 52 -88 76 0 24 9
33 63 61 34 18 75 42 90 52 26 19 29 19 52 4 37 -24 33 -48 -7 -41 -17 3 -36
9 -42 12 -6 3 -5 0 2 -8 14 -15 16 -53 2 -44 -6 3 -7 -1 -4 -9 5 -12 -1 -16
-21 -16 -18 0 -29 6 -32 20 -3 11 -9 20 -14 20 -14 0 -11 -17 6 -34 14 -13 13
-16 -4 -26 -14 -7 -22 -7 -26 0 -5 8 -11 7 -21 -1 -11 -9 0 -20 63 -56 200
-114 263 -138 263 -101 0 5 -4 6 -10 3 -5 -3 -10 -2 -10 3 0 6 -8 8 -19 5 -10
-3 -22 0 -25 6 -8 13 36 9 77 -8 18 -7 27 -17 25 -28 -4 -22 -28 -29 -28 -9 0
9 5 16 12 16 6 0 9 3 5 6 -3 3 -15 -1 -27 -9 l-21 -14 27 -18 c15 -9 33 -18
40 -19 7 -1 16 -5 20 -9 4 -4 13 1 21 11 13 15 13 15 7 -7 -5 -19 -3 -23 9
-18 11 4 18 -1 22 -14 4 -11 12 -18 18 -16 7 2 18 -2 25 -9 14 -15 72 0 72 19
0 6 3 8 6 4 4 -3 50 17 103 45 383 203 381 202 368 214 -3 4 -13 -1 -22 -10
-20 -20 -23 -20 -41 -2 -8 9 -11 22 -7 33 6 15 4 16 -8 6 -12 -9 -18 -10 -27
-1 -9 9 -14 5 -21 -13 -7 -17 -10 -19 -10 -6 -1 15 -8 14 -61 -13 -34 -17 -58
-35 -55 -40 3 -6 -1 -7 -10 -4 -11 5 -14 2 -9 -12 4 -13 3 -15 -3 -6 -8 10
-22 6 -67 -18 -32 -16 -68 -30 -80 -30 -17 0 -21 -6 -21 -32 0 -28 -3 -33 -22
-31 -34 4 -28 -14 7 -22 17 -4 30 -13 30 -20 0 -16 -27 -28 -35 -15 -3 5 3 11
12 14 10 2 -4 2 -32 -1 -27 -3 -52 -9 -55 -13 -3 -4 -16 -11 -30 -15 -22 -7
-23 -6 -12 8 8 9 11 25 7 37 -7 21 -25 28 -25 9 0 -6 -14 4 -31 22 -18 19 -26
35 -20 37 19 6 43 -7 36 -19 -5 -7 1 -10 16 -9 39 3 51 1 44 -10 -3 -5 -3 -10
0 -10 8 0 38 30 34 34 -2 1 -20 12 -39 24 -19 12 -31 22 -26 22 12 0 -40 40
-52 40 -5 0 -13 7 -16 16 -3 8 -11 12 -17 8 -8 -5 -9 -3 -4 5 4 8 -1 21 -14
32 -12 11 -21 25 -21 31 0 10 11 9 55 -7 19 -6 -94 57 -214 121 -30 16 -56 34
-58 40 -2 5 15 20 36 32 29 17 39 28 35 40 -4 11 -3 13 3 5 6 -8 25 -2 68 22
55 31 88 34 70 6z m-505 -1 c-8 -5 -17 -7 -19 -4 -3 3 1 9 9 14 8 5 17 7 19 4
3 -3 -1 -9 -9 -14z m760 10 c8 -5 11 -10 5 -10 -5 0 -17 5 -25 10 -8 5 -10 10
-5 10 6 0 17 -5 25 -10z m1136 -16 c-30 -21 -44 -16 -17 7 13 11 27 17 30 13
3 -3 -3 -12 -13 -20z m-1966 7 c0 -5 -11 -11 -25 -13 -14 -3 -25 -3 -25 -1 0
3 34 19 48 22 1 1 2 -3 2 -8z m1230 -1 c0 -5 -4 -10 -10 -10 -5 0 -10 5 -10
10 0 6 5 10 10 10 6 0 10 -4 10 -10z m1300 -16 c0 -8 -4 -14 -10 -14 -5 0 -10
9 -10 21 0 11 5 17 10 14 6 -3 10 -13 10 -21z m231 4 c23 -13 39 -29 39 -40 0
-23 -14 -23 -39 0 -11 9 -27 23 -35 30 -16 13 -22 32 -10 32 4 0 24 -10 45
-22z m-145 -27 c-4 -6 -11 -11 -15 -11 -11 0 -21 37 -13 45 9 9 35 -22 28 -34z
m-2027 0 c-34 -29 -57 -34 -74 -18 -17 18 -7 31 12 15 10 -8 16 -7 26 5 11 14
47 27 56 20 2 -1 -7 -11 -20 -22z m1317 3 c-11 -7 -22 -11 -25 -8 -3 3 3 12
13 20 11 7 22 11 25 8 3 -3 -3 -12 -13 -20z m1221 20 c-3 -3 -12 -4 -19 -1 -8
3 -5 6 6 6 11 1 17 -2 13 -5z m-2978 -28 c-2 -2 -15 -7 -29 -10 l-25 -7 25 21
c15 14 26 18 28 10 2 -6 2 -13 1 -14z m2165 7 c19 -9 34 -19 32 -22 -2 -3 9
-7 25 -8 15 -1 31 2 34 6 7 13 43 2 49 -15 6 -17 -6 -18 -21 -3 -8 8 -13 8
-18 0 -3 -6 2 -14 12 -18 10 -4 20 -10 23 -13 3 -4 25 -17 50 -30 72 -36 75
-40 42 -61 -20 -11 -31 -28 -34 -48 -5 -35 13 -48 36 -26 16 17 44 19 64 6 17
-10 -8 -24 -56 -29 -6 -1 -11 -6 -10 -12 2 -5 -43 -36 -100 -69 -93 -54 -106
-59 -130 -49 -15 6 -36 11 -47 12 -11 1 -19 6 -18 13 2 7 -6 10 -19 8 -26 -5
-37 -15 -15 -15 8 0 19 -9 22 -21 4 -11 12 -18 18 -16 7 2 18 -2 25 -10 17
-16 32 -17 33 0 1 25 18 -29 18 -62 1 -25 -2 -32 -14 -27 -18 7 -20 -5 -3 -22
9 -9 8 -12 -5 -12 -9 0 -17 5 -17 10 0 6 -6 10 -12 10 -7 -1 -2 -9 10 -20 22
-18 26 -19 54 -4 22 12 27 19 19 27 -6 6 -11 28 -11 49 0 29 6 41 25 54 14 9
27 15 29 13 2 -2 6 -28 9 -56 6 -51 5 -54 -23 -68 -17 -9 -29 -20 -27 -26 1
-5 -12 -16 -29 -24 -28 -11 -35 -11 -60 6 -39 25 -42 24 -47 -13 -3 -29 -4
-28 -3 5 0 35 -3 40 -32 53 -49 20 -92 53 -92 70 0 10 15 6 56 -17 48 -28 54
-29 43 -11 -7 11 -17 18 -21 15 -13 -7 -61 44 -53 57 3 5 1 10 -5 10 -13 0
-97 -46 -121 -67 -13 -11 -26 -7 -82 23 -44 23 -74 33 -87 29 -13 -4 -36 3
-65 19 -52 31 -61 42 -39 50 8 3 12 2 9 -4 -3 -5 15 -21 40 -36 l46 -27 23 22
c28 26 39 27 31 2 -8 -26 23 -32 77 -16 30 8 50 9 65 2 23 -10 73 -2 73 11 0
5 -31 26 -69 47 -54 30 -67 42 -59 52 7 9 7 13 -2 13 -10 0 -10 3 0 15 11 13
8 15 -14 15 -17 0 -26 5 -26 15 0 19 29 32 39 17 4 -7 12 -6 25 4 11 7 16 17
12 21 -4 4 -11 1 -15 -6 -6 -9 -11 -10 -15 -2 -11 17 54 46 75 33 14 -9 16 -8
12 9 -3 12 0 19 8 19 8 0 31 18 52 41 25 26 31 36 17 29 -12 -6 -24 -9 -27 -6
-8 7 68 37 78 30 5 -3 8 -1 7 5 -3 10 65 58 84 60 4 1 23 -6 42 -16z m133 -5
c-3 -8 -6 -5 -6 6 -1 11 2 17 5 13 3 -3 4 -12 1 -19z m243 -19 c0 -5 -5 -9
-11 -9 -5 0 -8 -4 -4 -9 3 -5 1 -12 -5 -16 -6 -4 -10 6 -10 24 0 23 4 29 15
25 8 -4 15 -10 15 -15z m-1290 -8 c0 -13 -30 -22 -43 -14 -7 4 -2 10 13 14 14
4 26 7 28 8 1 1 2 -3 2 -8z m630 -27 c-7 -8 -21 -12 -31 -9 -20 7 -39 -21 -32
-45 4 -9 0 -8 -9 4 -12 15 -18 16 -36 7 -31 -16 -78 -33 -69 -25 4 4 46 29 94
54 82 44 112 49 83 14z m-1945 15 c-4 -5 -11 -31 -16 -57 l-8 -47 3 48 c3 38
1 47 -10 43 -8 -3 -14 -1 -14 3 0 10 17 19 38 20 7 1 10 -4 7 -10z m2650 1 c3
-6 -1 -7 -9 -4 -18 7 -21 14 -7 14 6 0 13 -4 16 -10z m235 0 c0 -5 -2 -10 -4
-10 -3 0 -8 5 -11 10 -3 6 -1 10 4 10 6 0 11 -4 11 -10z m-181 -42 c-1 -37 -2
-39 -9 -18 -12 36 -12 60 0 60 6 0 10 -19 9 -42z m-2789 19 c0 -8 -11 -19 -25
-25 -22 -10 -25 -9 -25 7 0 17 12 25 43 30 4 0 7 -5 7 -12z m2591 -17 c7 0 4
7 -7 15 -17 14 -15 14 14 0 17 -8 32 -20 32 -25 0 -16 -21 -22 -35 -10 -12 10
-15 10 -15 -1 -1 -11 -3 -10 -13 2 -7 8 -20 18 -29 22 -10 3 -18 11 -18 17 0
6 12 4 30 -5 16 -8 35 -15 41 -15z m348 -1 c46 -14 47 -16 25 -44 -16 -20 -16
-19 -9 4 5 16 4 21 -4 17 -6 -4 -11 -2 -11 3 0 17 -21 13 -36 -6 -15 -21 -21
-17 -28 21 -4 20 -2 26 8 23 8 -3 32 -11 55 -18z m-224 -37 c28 -15 50 -34 50
-42 0 -8 5 -15 12 -15 6 0 15 -3 18 -7 10 -10 -44 1 -67 13 -10 5 -18 7 -18 3
0 -4 -8 0 -17 8 -10 9 -29 19 -42 23 -18 6 -20 9 -10 16 8 5 10 9 6 9 -5 0 -5
5 -2 10 9 14 13 13 70 -18z m-2795 -7 c0 -8 -2 -15 -4 -15 -2 0 -6 7 -10 15
-3 8 -1 15 4 15 6 0 10 -7 10 -15z m3023 -47 c22 -11 36 -22 33 -25 -3 -3 -12
0 -21 7 -8 7 -22 10 -30 6 -10 -3 -13 -2 -10 5 4 6 -2 8 -18 4 -19 -5 -25 -2
-30 15 -5 18 -2 20 16 14 12 -4 39 -15 60 -26z m-1964 5 c0 -12 -109 -61 -109
-49 0 5 -6 2 -13 -8 -12 -16 -13 -16 -13 1 0 13 8 20 25 21 14 1 35 11 46 22
19 19 66 28 64 13z m821 -4 c0 -5 -4 -7 -10 -4 -6 4 -11 -11 -12 -37 -1 -38
-2 -39 -5 -10 -3 19 -2 40 1 48 6 16 26 19 26 3z m-1305 -27 c-7 -8 -35 7 -35
18 0 6 7 6 20 -2 10 -7 17 -14 15 -16z m1040 18 c19 -8 19 -9 -2 -9 -12 -1
-25 4 -28 9 -7 12 2 12 30 0z m216 -42 l-4 -43 -10 33 c-10 32 -8 36 18 52 0
0 -1 -19 -4 -42z m1849 -143 c0 -158 -2 -185 -15 -185 -8 0 -15 8 -15 19 0 10
-5 32 -11 50 l-11 32 -16 -22 -15 -22 -8 21 c-9 25 -29 30 -29 7 0 -8 -4 -15
-10 -15 -16 0 -13 210 3 210 6 1 37 21 67 45 30 24 56 44 58 45 1 0 2 -83 2
-185z m-3040 120 c0 -19 -1 -19 -21 2 -14 14 -19 28 -15 39 6 16 8 16 21 -2 8
-10 15 -28 15 -39z m-497 31 c3 -8 -1 -22 -8 -33 -13 -17 -14 -16 -15 15 0 33
13 43 23 18z m307 -28 c-32 -12 -51 -3 -20 10 14 5 29 7 34 4 5 -3 -1 -9 -14
-14z m560 2 c-8 -5 -19 -10 -25 -10 -5 0 -3 5 5 10 8 5 20 10 25 10 6 0 3 -5
-5 -10z m-1024 -19 c-4 -5 -1 -12 4 -14 6 -3 5 -4 -2 -3 -15 3 -23 26 -8 26 6
0 9 -4 6 -9z m154 -15 c0 -3 -4 -8 -10 -11 -5 -3 -10 -1 -10 4 0 6 5 11 10 11
6 0 10 -2 10 -4z m385 -7 c11 -16 1 -19 -13 -3 -7 8 -8 14 -3 14 5 0 13 -5 16
-11z m1498 2 c4 -1 7 -6 7 -11 0 -6 -11 -8 -25 -4 -13 3 -39 1 -56 -5 -34 -12
-77 0 -45 12 10 4 15 3 11 -3 -9 -14 5 -12 35 5 14 7 34 12 45 10 11 -2 23 -4
28 -4z m-141 -79 l4 -31 -28 15 c-32 16 -36 29 -11 38 12 5 14 9 5 18 -7 7
-12 16 -12 20 0 21 38 -33 42 -60z m-1662 48 c0 -5 -4 -10 -10 -10 -5 0 -10 5
-10 10 0 6 5 10 10 10 6 0 10 -4 10 -10z m1607 -12 c-3 -8 -6 -5 -6 6 -1 11 2
17 5 13 3 -3 4 -12 1 -19z m189 -16 c-38 -3 -67 11 -52 25 4 4 11 2 15 -6 6
-10 10 -9 14 4 6 14 9 14 34 -2 l27 -18 -38 -3z m-2006 -2 c0 -10 -9 -24 -20
-30 -17 -9 -20 -8 -20 14 0 15 7 26 18 29 9 3 18 5 20 6 1 0 2 -8 2 -19z m65
11 c-6 -11 -45 -21 -45 -12 0 12 8 17 30 18 11 1 18 -2 15 -6z m2533 -102
c-20 -13 -25 -11 -32 14 -10 38 -7 59 12 73 15 11 18 8 25 -33 6 -34 5 -48 -5
-54z m-1070 85 c14 -4 22 -14 22 -29 0 -22 -1 -22 -35 -6 -54 25 -45 50 13 35z
m380 -35 c-9 -6 -14 -3 -16 8 -2 8 2 19 10 24 9 6 14 3 16 -8 2 -8 -2 -19 -10
-24z m175 26 c41 -17 57 -45 26 -45 -11 0 -22 6 -25 14 -7 18 -39 27 -52 14
-6 -6 -19 -7 -29 -3 -16 6 -14 9 12 21 17 7 31 13 31 14 1 0 17 -7 37 -15z
m-1938 -5 c-3 -5 -11 -10 -16 -10 -6 0 -7 5 -4 10 3 6 11 10 16 10 6 0 7 -4 4
-10z m276 -3 c-1 -4 -1 -21 -1 -39 0 -40 -5 -34 -14 16 -5 27 -4 37 4 34 6 -2
11 -7 11 -11z m2339 3 c0 -5 -4 -10 -10 -10 -5 0 -10 5 -10 10 0 6 5 10 10 10
6 0 10 -4 10 -10z m-220 -57 c-4 -56 -5 -57 -8 -14 -3 38 2 71 10 71 2 0 1
-26 -2 -57z m-25 -71 c-8 -22 -14 -11 -21 36 -3 25 -1 49 8 64 12 22 13 20 16
-31 2 -29 1 -60 -3 -69z m-2470 78 c-10 -11 -21 -18 -23 -15 -6 6 31 44 37 39
2 -2 -4 -13 -14 -24z m1146 -63 c-8 -8 -11 4 -10 44 l1 54 10 -44 c7 -30 6
-47 -1 -54z m39 66 c0 -21 -3 -24 -9 -14 -5 8 -7 20 -4 28 8 21 13 15 13 -14z
m1572 -13 c-3 -26 -9 -40 -18 -40 -17 0 -17 7 -3 49 15 43 25 39 21 -9z
m-2082 -10 c0 -5 -8 -10 -17 -10 -15 0 -16 2 -3 10 19 12 20 12 20 0z m2025
-15 c-3 -35 -15 -44 -15 -13 0 21 7 38 16 38 1 0 1 -11 -1 -25z m-2778 -7 c-3
-8 -6 -5 -6 6 -1 11 2 17 5 13 3 -3 4 -12 1 -19z m2690 0 c2 -16 0 -19 -6 -9
-5 8 -9 -5 -9 -35 -2 -71 -22 -82 -22 -11 0 43 4 58 18 66 9 6 17 11 17 11 1
0 2 -10 2 -22z m-640 -41 c-3 -11 -177 -117 -284 -174 -34 -17 -53 -34 -53
-45 0 -10 -4 -18 -10 -18 -5 0 -9 27 -9 60 1 33 5 60 9 60 4 0 7 8 6 18 0 9 5
16 13 14 7 -1 19 3 27 9 11 9 14 8 14 -2 0 -12 2 -12 9 0 7 11 11 10 19 -5 9
-16 14 -17 32 -6 11 7 25 10 30 7 6 -3 7 0 4 8 -3 8 -1 18 5 22 6 3 11 0 11
-8 0 -13 11 -14 54 -8 5 0 1 11 -10 24 -19 22 -19 22 2 5 25 -22 41 -24 24 -3
-7 9 -10 18 -6 22 3 3 6 2 6 -3 0 -5 9 -10 20 -10 11 0 20 6 20 13 0 7 7 13
15 13 21 0 19 10 -7 38 l-23 24 43 -21 c24 -12 42 -27 39 -34z m578 -14 c-4
-68 -5 -73 -16 -73 -8 0 -10 12 -6 35 7 42 -6 52 -39 30 -14 -9 -28 -14 -31
-12 -4 5 76 57 88 57 3 0 5 -17 4 -37z m-455 17 c0 -5 -2 -10 -4 -10 -3 0 -8
5 -11 10 -3 6 -1 10 4 10 6 0 11 -4 11 -10z m-280 -10 c0 -5 -7 -10 -15 -10
-8 0 -15 5 -15 10 0 6 7 10 15 10 8 0 15 -4 15 -10z m954 -15 c20 -13 36 -22
36 -20 0 2 12 -7 27 -21 15 -14 61 -42 101 -61 40 -20 70 -38 67 -41 -3 -3
-58 21 -123 54 -64 32 -123 58 -129 58 -7 -1 -10 2 -7 7 3 5 3 9 0 9 -2 0 -11
3 -20 6 -10 4 -16 1 -16 -9 0 -8 -7 -17 -15 -21 -8 -3 -12 -12 -9 -20 3 -8 0
-17 -7 -21 -9 -6 -10 -1 -7 19 3 15 1 26 -6 26 -11 1 53 59 65 60 3 0 23 -11
43 -25z m-593 -45 c5 0 9 -15 8 -32 -1 -31 -1 -32 -9 -8 -4 14 -8 22 -9 18 -1
-3 -4 -13 -7 -21 -4 -10 15 -26 63 -53 37 -22 77 -42 87 -47 10 -4 16 -10 13
-13 -3 -3 -14 -1 -25 5 -15 8 -22 8 -25 -2 -3 -7 -6 -6 -6 5 -1 10 -18 23 -46
34 -25 9 -46 22 -47 28 0 6 -4 -9 -8 -34 l-7 -45 -1 46 c-2 34 -7 49 -19 54
-17 6 -17 7 0 16 15 9 17 19 13 57 -5 41 -5 43 5 20 6 -16 15 -28 20 -28z
m753 30 c3 1 22 -5 41 -11 37 -14 47 -42 20 -53 -23 -8 -105 35 -102 53 3 21
20 33 28 20 3 -6 9 -10 13 -9z m-1826 -31 c-20 -13 -28 -11 -28 10 0 23 33 33
38 12 2 -7 -2 -17 -10 -22z m1079 19 c-3 -8 -6 -5 -6 6 -1 11 2 17 5 13 3 -3
4 -12 1 -19z m263 8 c0 -2 -7 -7 -16 -10 -8 -3 -12 -2 -9 4 6 10 25 14 25 6z
m-213 -20 c0 -8 -5 -14 -11 -13 -6 1 -11 -10 -12 -26 -2 -44 -14 -44 -14 1 0
30 4 42 18 45 9 3 17 5 18 6 0 0 1 -5 1 -13z m383 -27 c-7 -11 -17 -18 -25
-15 -19 7 -55 -36 -55 -68 0 -15 -4 -25 -10 -21 -5 3 -7 12 -4 19 3 8 1 17 -5
21 -7 4 -11 -5 -11 -24 0 -35 -19 -43 -21 -8 l-2 22 -4 -22 c-6 -33 -23 -28
-23 5 0 25 9 34 73 69 85 48 103 53 87 22z m187 -5 c3 -9 20 -22 37 -30 l31
-13 -28 -1 c-16 0 -30 6 -33 15 -4 8 -12 15 -20 15 -8 0 -14 7 -14 15 0 20 19
19 27 -1z m-930 -34 c1 -21 -2 -42 -7 -45 -6 -4 -10 12 -10 39 0 56 14 61 17
6z m878 20 c-3 -5 1 -10 9 -10 9 0 16 -7 16 -15 0 -13 -4 -14 -20 -5 -21 11
-25 22 -13 33 10 10 15 8 8 -3z m-322 -15 c-3 -9 -8 -14 -10 -11 -3 3 -2 9 2
15 9 16 15 13 8 -4z m34 -7 c-3 -8 -6 -5 -6 6 -1 11 2 17 5 13 3 -3 4 -12 1
-19z m-357 5 c0 -5 -5 -15 -10 -23 -9 -13 -11 -13 -20 0 -8 13 -1 21 28 29 1
1 2 -2 2 -6z m1055 -22 c3 -5 1 -12 -5 -16 -5 -3 -10 1 -10 9 0 18 6 21 15 7z
m-1416 -130 c-8 -2 -7 -6 2 -12 12 -8 11 -11 -1 -19 -12 -7 -16 -4 -18 17 -2
14 2 30 10 34 10 7 10 9 1 9 -8 0 -13 14 -13 38 0 21 6 44 13 51 10 10 13 0
15 -51 2 -41 -1 -64 -9 -67z m1160 115 c7 -8 8 -17 3 -20 -6 -3 -12 3 -15 14
-6 24 -4 25 12 6z m-459 -10 c0 -2 -7 -7 -16 -10 -8 -3 -12 -2 -9 4 6 10 25
14 25 6z m166 -42 c-3 -9 -12 -14 -21 -10 -9 3 -15 0 -15 -9 0 -8 -4 -15 -9
-15 -5 0 -16 -17 -24 -37 l-16 -38 -7 32 c-8 39 -18 35 -44 -20 l-20 -42 2 40
c3 39 6 42 77 82 41 23 77 41 79 38 3 -2 2 -12 -2 -21z m389 16 c-9 -14 -146
-93 -151 -87 -7 7 52 49 105 74 56 26 54 25 46 13z m-2873 -12 c-5 -7 -12 -24
-15 -38 l-4 -25 -2 26 c0 14 4 30 11 37 16 16 23 15 10 0z m778 -28 c-19 -13
-30 -13 -30 0 0 6 10 10 23 10 18 0 19 -2 7 -10z m1246 -10 c8 0 14 -5 14 -12
0 -6 3 -8 7 -5 3 4 13 1 22 -7 9 -8 45 -30 81 -50 36 -20 58 -36 50 -36 -9 0
-21 5 -26 10 -6 6 -25 12 -42 14 -23 3 -29 1 -25 -10 3 -9 -2 -14 -16 -14 -23
0 -29 25 -8 33 7 3 5 6 -5 6 -10 1 -18 -6 -18 -14 0 -13 -4 -14 -20 -5 -14 8
-20 21 -20 45 0 19 -4 35 -10 35 -5 0 -10 8 -9 18 0 10 3 12 6 5 2 -7 11 -13
19 -13z m-211 -2 c-11 -7 -33 -24 -50 -40 -32 -30 -41 -33 -50 -18 -6 9 90 70
110 70 6 -1 1 -6 -10 -12z m-705 -73 c0 -45 -12 -61 -69 -90 -24 -12 -47 -15
-85 -11 -82 9 -85 10 -80 18 3 5 -2 11 -10 14 -19 7 -31 64 -20 96 7 20 9 17
14 -22 7 -61 48 -90 117 -83 77 8 110 28 116 70 4 20 1 45 -5 57 -10 19 -10
20 5 7 11 -9 17 -28 17 -56z m-620 36 c0 -5 -7 -11 -15 -15 -9 -3 -15 0 -15 9
0 8 7 15 15 15 8 0 15 -4 15 -9z m440 -11 c0 -5 -5 -10 -11 -10 -5 0 -7 5 -4
10 3 6 8 10 11 10 2 0 4 -4 4 -10z m117 -12 c-3 -8 -6 -5 -6 6 -1 11 2 17 5
13 3 -3 4 -12 1 -19z m669 -20 c10 -12 14 -18 7 -15 -6 4 -13 3 -15 -3 -1 -5
-21 -11 -44 -12 -34 -1 -40 -4 -40 -22 1 -16 -4 -20 -21 -19 -14 2 -23 -3 -23
-11 0 -10 -9 -14 -27 -12 -16 2 -27 7 -26 11 1 8 152 104 164 105 3 0 14 -10
25 -22z m264 5 c0 -5 -5 -15 -10 -23 -8 -12 -10 -11 -10 8 0 12 5 22 10 22 6
0 10 -3 10 -7z m-2682 -47 c20 -12 112 -67 205 -120 92 -54 167 -100 167 -103
0 -2 -3 -2 -7 0 -75 41 -401 232 -407 238 -19 17 5 9 42 -15z m1407 14 c-3 -5
-14 -10 -23 -9 -14 0 -13 2 3 9 27 11 27 11 20 0z m275 6 c0 -3 -4 -8 -10 -11
-5 -3 -10 -1 -10 4 0 6 5 11 10 11 6 0 10 -2 10 -4z m-306 -38 c-3 -4 -9 -8
-15 -8 -5 0 -9 4 -9 8 0 5 7 9 15 9 8 0 12 -4 9 -9z m1405 -23 c33 -20 63 -40
67 -46 3 -6 -11 0 -32 14 -22 13 -56 29 -76 36 -21 7 -38 17 -38 22 0 16 17
10 79 -26z m-391 0 c-1 -13 -6 -21 -10 -17 -5 5 -6 16 -2 25 9 24 14 21 12 -8z
m-588 6 c0 -12 -63 -51 -81 -51 -8 0 6 14 31 30 51 34 50 33 50 21z m410 -40
c0 -22 -4 -43 -10 -46 -6 -4 -10 12 -10 39 0 25 5 46 10 46 6 0 10 -18 10 -39z
m147 17 c-3 -8 -6 -5 -6 6 -1 11 2 17 5 13 3 -3 4 -12 1 -19z m154 -16 c-8 -3
-26 -16 -39 -29 -15 -15 -32 -23 -43 -20 -14 4 -19 0 -19 -17 0 -17 -10 -27
-40 -39 -48 -18 -65 -4 -29 25 34 26 173 97 179 91 3 -3 -1 -8 -9 -11z m227
-1 c3 -10 0 -12 -11 -8 -11 4 -14 2 -10 -9 3 -7 0 -14 -6 -14 -6 0 -11 12 -11
26 0 18 5 25 17 22 9 -2 18 -9 21 -17z m32 -21 c0 -5 -4 -10 -10 -10 -5 0 -10
5 -10 10 0 6 5 10 10 10 6 0 10 -4 10 -10z m96 -48 c13 -7 24 -17 24 -22 0 -4
-25 5 -55 22 -30 16 -55 34 -55 39 0 5 14 2 31 -8 17 -10 42 -24 55 -31z m476
3 c33 -1 -27 -45 -139 -104 -19 -10 -22 -9 -17 4 4 8 10 15 14 15 7 0 52 36
93 76 12 11 27 18 32 15 6 -3 13 -6 17 -6z m-602 -27 c0 -5 10 -8 21 -8 12 0
35 -15 53 -34 17 -18 58 -48 91 -65 66 -34 101 -58 94 -66 -3 -2 -29 10 -59
28 -30 18 -97 55 -147 82 -76 40 -93 54 -93 72 0 21 2 22 20 11 11 -7 20 -16
20 -20z m490 27 c0 -2 -18 -14 -41 -26 -23 -11 -38 -15 -34 -9 4 7 21 18 39
26 36 16 36 15 36 9z m-1380 -55 c-14 -11 -45 -29 -70 -41 -25 -11 -72 -38
-105 -58 -67 -42 -108 -60 -88 -40 12 12 273 158 283 158 3 0 -6 -8 -20 -19z
m468 -4 c3 -14 -1 -17 -17 -11 -16 5 -21 2 -21 -10 0 -11 -5 -15 -14 -12 -7 3
-18 1 -24 -5 -6 -6 -12 -6 -16 1 -7 11 62 62 79 57 6 -1 12 -11 13 -20z m-108
-45 c0 -43 -17 -47 -22 -6 -3 24 0 35 9 35 8 0 13 -12 13 -29z m-1662 -76 c83
-49 150 -90 148 -92 -4 -4 -296 165 -311 180 -14 14 -12 13 163 -88z m2196 89
c17 -6 22 -24 8 -24 -5 0 -17 7 -28 15 -19 15 -8 20 20 9z m-39 -44 c3 -5 2
-10 -4 -10 -5 0 -13 5 -16 10 -3 6 -2 10 4 10 5 0 13 -4 16 -10z m-35 -15 c0
-2 -9 -9 -20 -15 -12 -6 -20 -7 -20 -1 0 5 8 12 18 14 9 3 18 5 20 6 1 0 2 -1
2 -4z m-1097 -30 c-3 -9 -8 -14 -10 -11 -3 3 -2 9 2 15 9 16 15 13 8 -4z m92
-15 c-10 -11 -23 -20 -29 -20 -6 1 0 10 13 20 30 26 39 26 16 0z m1485 -16 c0
-2 -9 0 -20 6 -11 6 -20 13 -20 16 0 2 9 0 20 -6 11 -6 20 -13 20 -16z m-721
-45 c-5 -11 -14 -17 -18 -14 -5 3 -11 -1 -14 -9 -3 -7 -14 -16 -25 -18 -17 -5
-20 -1 -19 28 1 19 5 34 9 34 4 0 8 -5 8 -12 0 -13 14 -2 16 13 3 22 5 23 14
9 8 -12 11 -11 17 9 l6 25 9 -23 c5 -13 4 -30 -3 -42z m630 48 c14 4 14 3 1
-6 -13 -9 -13 -11 0 -12 20 -2 22 -1 40 5 8 4 26 -4 40 -16 14 -13 31 -23 38
-24 29 -2 33 -5 27 -14 -3 -5 9 -17 28 -26 32 -15 37 -15 67 0 18 9 35 14 37
12 4 -3 -49 -38 -127 -84 l-25 -14 24 21 c28 25 25 30 -44 67 -92 48 -135 76
-135 86 0 5 -5 6 -12 2 -7 -5 -8 -3 -3 5 5 9 11 9 17 3 6 -6 18 -8 27 -5z
m-116 -18 c-4 -15 -9 -17 -17 -9 -8 8 -7 13 4 20 8 5 16 10 17 10 0 0 -1 -9
-4 -21z m303 -37 c-5 -4 -86 36 -86 43 0 3 20 -5 45 -17 24 -12 43 -23 41 -26z
m-1657 25 c11 -14 5 -27 -11 -27 -5 0 -6 5 -3 10 3 6 -1 10 -10 10 -9 0 -13 5
-10 10 8 14 20 13 34 -3z m1258 -12 c0 -8 -10 -23 -21 -32 -20 -17 -20 -17 -7
0 7 9 10 17 6 17 -4 0 -2 7 5 15 15 19 17 19 17 0z m138 -5 c-3 -5 -11 -10
-16 -10 -6 0 -7 5 -4 10 3 6 11 10 16 10 6 0 7 -4 4 -10z m-1421 -17 c4 -9 1
-21 -5 -27 -9 -8 -10 -8 -5 2 4 7 2 19 -4 27 -7 9 -8 15 -2 15 5 0 13 -8 16
-17z m1446 -3 c0 -5 -4 -10 -10 -10 -5 0 -10 5 -10 10 0 6 5 10 10 10 6 0 10
-4 10 -10z m-2195 -63 c6 -6 -12 2 -40 18 -27 15 -54 32 -60 38 -5 6 13 -2 40
-18 28 -15 55 -32 60 -38z m1515 46 c0 -18 -28 -53 -42 -53 -5 0 -6 10 -2 23
13 43 44 64 44 30z m760 -13 c0 -5 -4 -10 -9 -10 -6 0 -13 5 -16 10 -3 6 1 10
9 10 9 0 16 -4 16 -10z m-830 -50 c0 -5 -5 -10 -11 -10 -5 0 -7 5 -4 10 3 6 8
10 11 10 2 0 4 -4 4 -10z m-1360 -36 c0 -2 -9 0 -20 6 -11 6 -20 13 -20 16 0
2 9 0 20 -6 11 -6 20 -13 20 -16z m1303 6 c3 -11 1 -23 -4 -26 -5 -3 -9 6 -9
20 0 31 6 34 13 6z m-498 0 c-3 -5 -11 -10 -16 -10 -6 0 -7 5 -4 10 3 6 11 10
16 10 6 0 7 -4 4 -10z m610 -30 c-3 -5 -10 -10 -16 -10 -5 0 -9 5 -9 10 0 6 7
10 16 10 8 0 12 -4 9 -10z m28 -23 c3 -7 -3 -13 -13 -13 -10 0 -16 6 -13 13 3
7 9 13 13 13 4 0 10 -6 13 -13z m47 -23 c0 -8 -4 -12 -10 -9 -5 3 -10 10 -10
16 0 5 5 9 10 9 6 0 10 -7 10 -16z m-1800 -97 c11 -40 23 -76 24 -82 4 -12 11
5 26 63 12 47 19 51 44 24 15 -18 15 -23 -10 -88 -14 -38 -29 -72 -32 -76 -19
-19 -52 34 -86 137 -20 61 -36 114 -36 118 0 4 11 0 24 -8 17 -12 31 -38 46
-88z m1710 53 c0 -5 -7 -10 -16 -10 -8 0 -12 5 -9 10 3 6 10 10 16 10 5 0 9
-4 9 -10z m510 -4 c0 -2 -7 -6 -15 -10 -8 -3 -15 -1 -15 4 0 6 7 10 15 10 8 0
15 -2 15 -4z m-395 -15 c-6 -5 -30 -23 -54 -40 -25 -17 -46 -39 -47 -47 -2
-13 0 -13 17 2 10 9 19 14 19 10 0 -3 13 0 30 9 39 20 80 36 80 30 0 -2 -29
-21 -65 -42 -35 -20 -63 -38 -61 -40 3 -4 60 19 99 39 34 17 28 1 -10 -29 -21
-17 -48 -29 -60 -28 -12 1 -20 -2 -17 -6 2 -4 0 -10 -6 -14 -5 -3 -10 -11 -10
-17 0 -6 7 -5 17 3 15 13 15 12 5 -7 -8 -16 -20 -20 -51 -19 -22 1 -47 8 -56
15 -14 12 -18 12 -26 -1 -5 -8 -9 -22 -9 -32 0 -42 -15 -5 -18 45 l-3 53 66
34 c64 33 65 34 48 53 -17 18 -16 19 11 9 22 -9 34 -7 64 9 41 21 51 24 37 11z
m345 -1 c0 -5 -8 -10 -17 -10 -15 0 -16 2 -3 10 19 12 20 12 20 0z m-545 -20
c3 -5 1 -10 -4 -10 -6 0 -11 5 -11 10 0 6 2 10 4 10 3 0 8 -4 11 -10z m489
-12 c-6 -14 -79 -68 -93 -68 -5 0 -14 -7 -21 -15 -7 -8 -20 -14 -29 -13 -9 2
-15 -3 -13 -9 1 -7 -5 -13 -14 -13 -9 0 -30 -7 -47 -16 -18 -9 -39 -20 -47
-24 -10 -4 -26 4 -45 23 -16 16 -25 27 -19 23 7 -3 31 5 55 19 66 36 119 57
119 45 0 -5 -11 -12 -25 -16 -14 -3 -25 -10 -25 -15 0 -5 -9 -9 -19 -9 -23 0
-37 -16 -19 -22 7 -3 38 9 68 26 42 23 158 85 177 95 1 1 0 -5 -3 -11z m991
-68 c-5 -8 -10 -8 -21 1 -19 16 -54 -15 -54 -46 0 -18 7 -24 35 -29 38 -7 58
-26 27 -26 -42 0 -82 21 -82 43 1 53 61 109 89 82 7 -7 10 -18 6 -25z m-2927
17 c14 -16 20 -197 7 -197 -26 1 -33 22 -38 113 -4 75 -2 97 8 97 7 0 17 -6
23 -13z m169 -93 c38 -29 57 -60 49 -80 -4 -10 -13 -6 -37 15 -57 52 -90 45
-74 -17 9 -35 43 -72 68 -72 21 0 46 -26 47 -47 0 -19 -41 -16 -75 5 -73 45
-119 169 -79 213 22 24 54 19 101 -17z m2565 -29 c-2 -14 -6 -25 -8 -25 -2 0
-4 11 -4 25 0 14 4 25 9 25 4 0 6 -11 3 -25z m-1422 -5 c0 -5 -5 -10 -11 -10
-5 0 -7 5 -4 10 3 6 8 10 11 10 2 0 4 -4 4 -10z m290 -22 c0 -5 -4 -7 -9 -3
-6 3 -13 0 -18 -7 -9 -15 -73 -40 -73 -29 0 4 16 15 35 24 19 9 35 21 35 27 0
5 7 7 15 4 8 -4 15 -10 15 -16z m-1202 -106 c3 -22 -12 -30 -23 -12 -3 6 -13
10 -21 10 -11 0 -14 -16 -14 -75 0 -73 -1 -75 -20 -63 -17 11 -20 24 -20 90 0
74 -1 77 -30 98 -19 14 -30 30 -30 46 0 24 2 23 78 -24 53 -33 78 -55 80 -70z
m1323 88 c25 0 24 -12 -1 -28 -16 -10 -24 -10 -40 0 -24 15 -26 28 -5 28 8 0
15 6 16 13 0 10 2 10 6 0 2 -7 13 -13 24 -13z m-731 -81 c48 -26 123 -78 95
-66 -25 10 -235 139 -235 143 0 3 19 -6 43 -21 23 -14 67 -39 97 -56z m1658
64 c6 -19 -25 -16 -32 3 -4 11 -1 14 11 12 9 -2 18 -9 21 -15z m122 3 c0 -2
-8 -10 -17 -17 -16 -13 -17 -12 -4 4 13 16 21 21 21 13z m-229 -117 l-9 -34
-1 42 c-1 23 2 50 7 60 12 29 15 -28 3 -68z m369 77 c0 -2 -8 -10 -17 -17 -16
-13 -17 -12 -4 4 13 16 21 21 21 13z m-2949 -35 c4 -18 6 -101 2 -101 -2 0 -8
12 -14 28 -7 15 -13 22 -16 15 -11 -29 -23 -9 -23 37 0 49 0 50 25 38 14 -6
26 -14 26 -17z m490 -11 c16 -9 19 -22 19 -81 0 -74 11 -109 35 -109 12 0 15
15 15 70 0 39 3 70 6 70 3 0 14 -5 25 -10 16 -9 19 -22 19 -89 0 -99 -13 -115
-68 -86 -61 34 -77 65 -81 161 -1 46 0 84 4 84 3 0 15 -5 26 -10z m2336 -35
c-25 -22 -47 -32 -47 -21 0 5 63 46 70 46 3 -1 -8 -12 -23 -25z m-2756 -2 c12
-15 12 -16 -4 -10 -16 6 -18 2 -15 -26 2 -17 12 -40 23 -49 11 -10 15 -17 9
-18 -24 0 -43 28 -49 73 -6 38 -4 47 8 47 8 0 21 -8 28 -17z m2362 -33 c-30
-18 -33 -24 -33 -70 0 -32 -4 -49 -10 -45 -5 3 -10 28 -10 54 0 39 4 52 23 64
12 9 31 16 42 16 16 1 13 -4 -12 -19z m-2283 -22 c0 -9 -3 -9 -12 0 -25 25
-28 10 -4 -25 19 -27 23 -40 15 -50 -12 -14 -49 -1 -49 17 0 14 14 12 28 -2
25 -25 11 6 -20 45 -22 28 -27 39 -15 34 9 -3 17 -2 17 4 0 6 7 6 20 -1 11 -6
20 -16 20 -22z m40 -76 c0 -26 -4 -41 -10 -37 -5 3 -10 30 -10 58 0 37 3 48
10 37 5 -8 10 -34 10 -58z m2494 56 c-13 -24 -37 -48 -47 -48 -6 0 2 14 18 30
31 32 41 38 29 18z m-1962 -20 c42 -24 84 -81 73 -99 -5 -7 -21 3 -46 27 -55
54 -62 33 -7 -24 25 -26 49 -57 53 -69 10 -37 -3 -63 -32 -63 -33 0 -113 78
-113 110 0 20 4 19 47 -21 31 -28 48 -38 51 -30 3 8 -19 35 -47 61 -53 49 -67
90 -39 118 15 15 14 16 60 -10z m628 12 c8 -5 11 -10 5 -10 -5 0 -17 5 -25 10
-8 5 -10 10 -5 10 6 0 17 -5 25 -10z m-1090 -40 c13 -24 13 -67 0 -75 -5 -3
-19 -1 -30 5 -16 9 -20 21 -20 61 0 46 1 49 20 39 11 -6 24 -19 30 -30z m2038
-4 c3 -13 -1 -16 -21 -11 -19 5 -29 1 -41 -16 -25 -37 -20 -56 19 -70 19 -7
35 -16 35 -20 0 -8 -61 4 -79 15 -27 17 -2 89 40 112 29 16 43 13 47 -10z
m206 -40 c-6 -35 -60 -103 -72 -92 -3 3 7 15 22 27 16 12 30 38 37 65 14 53
23 52 13 0z m-2173 8 c12 -15 11 -16 -9 -10 -19 7 -22 4 -22 -23 0 -18 7 -34
17 -40 10 -5 15 -12 12 -16 -3 -3 -15 2 -27 12 -15 14 -19 26 -15 56 6 40 22
47 44 21z m47 -42 c-10 -2 -18 -10 -18 -17 0 -9 6 -12 15 -9 8 4 15 1 15 -5 0
-6 -7 -11 -15 -11 -20 0 -19 -19 3 -37 15 -13 14 -13 -7 -1 -17 10 -25 23 -24
41 3 72 1 69 26 55 19 -10 20 -13 5 -16z m1772 4 c0 -8 -9 -17 -19 -21 -11 -3
-34 -19 -50 -35 -25 -23 -31 -25 -31 -10 0 13 70 69 98 79 1 1 2 -5 2 -13z
m-1711 -53 c18 -34 20 -35 21 -13 0 17 3 21 11 13 7 -7 8 -26 4 -55 l-8 -43
-17 37 c-22 49 -34 60 -28 26 3 -16 1 -28 -3 -28 -5 0 -9 9 -9 20 0 11 -5 20
-12 20 -9 0 -9 3 0 12 7 7 12 20 12 30 0 27 7 22 29 -19z m102 -40 c12 -15 12
-16 -3 -10 -9 3 -22 -1 -28 -9 -13 -15 -4 -34 29 -61 8 -7 12 -16 8 -19 -11
-11 -57 44 -57 69 0 22 16 47 31 47 4 0 13 -8 20 -17z m1574 -29 c-34 -26 -55
-36 -55 -25 0 11 48 40 65 40 6 0 1 -7 -10 -15z m-1521 0 c9 -3 16 -11 16 -16
0 -6 -6 -5 -15 2 -12 10 -15 10 -15 -3 0 -8 7 -17 15 -21 8 -3 15 -11 15 -17
0 -8 -4 -8 -15 1 -24 20 -19 -10 7 -37 23 -24 14 -31 -14 -10 -19 15 -36 107
-20 107 6 0 17 -3 26 -6z m1364 -6 c28 -28 -3 -99 -51 -114 -12 -4 -25 -12
-29 -18 -4 -6 -8 14 -8 46 0 50 3 59 28 77 31 24 43 26 60 9z m272 -18 c0 -5
-4 -10 -10 -10 -5 0 -10 5 -10 10 0 6 5 10 10 10 6 0 10 -4 10 -10z m1296 -12
c4 -7 4 -10 -1 -6 -4 4 -13 3 -20 -2 -8 -7 -12 -5 -12 5 0 18 23 20 33 3z
m-2848 -26 c2 -8 -2 -10 -14 -5 -14 5 -13 0 6 -25 18 -24 21 -35 13 -43 -13
-13 -43 -5 -43 10 0 6 7 8 17 4 12 -5 11 1 -7 24 -12 17 -19 36 -15 43 9 14
37 9 43 -8z m1379 -34 c-2 -13 -4 -5 -4 17 -1 22 1 32 4 23 2 -10 2 -28 0 -40z
m1315 -23 c7 -33 -25 -55 -41 -28 -9 17 -12 16 -33 -6 l-23 -23 23 7 c14 4 22
2 22 -6 0 -7 -3 -9 -7 -6 -3 4 -12 -1 -20 -11 -8 -9 -12 -12 -9 -5 4 6 1 15
-5 19 -8 4 3 21 32 48 24 23 47 41 50 39 4 -1 9 -14 11 -28z m-1237 -1 c-38
-30 -61 -36 -32 -10 15 14 33 26 40 26 7 0 3 -8 -8 -16z m1765 1 c-7 -8 -18
-15 -24 -15 -6 0 -2 7 8 15 25 19 32 19 16 0z m-561 -90 c-136 -96 -170 -118
-175 -112 -3 3 7 14 23 23 15 10 30 22 33 25 13 17 116 89 127 89 7 0 13 5 13
10 0 6 10 10 21 10 15 0 3 -13 -42 -45z m-84 7 c-3 -3 -11 0 -18 7 -9 10 -8
11 6 5 10 -3 15 -9 12 -12z m-115 -147 c-7 -8 -17 -15 -23 -15 -5 0 -2 9 8 20
21 23 35 19 15 -5z m74 -1 c3 -8 2 -12 -4 -9 -6 3 -10 10 -10 16 0 14 7 11 14
-7z m-40 -29 c-4 -8 -10 -12 -15 -9 -14 8 -10 24 6 24 9 0 12 -6 9 -15z m-165
-366 c-8 -5 -21 -8 -29 -8 -10 0 -11 2 -2 6 6 2 12 9 12 14 0 6 -5 7 -12 3 -7
-4 -8 -3 -4 4 5 9 13 9 28 1 17 -9 18 -13 7 -20z m-84 -294 c-16 -14 -38 -30
-48 -36 -16 -9 -17 -8 -6 9 7 11 26 27 43 35 43 22 45 20 11 -8z m746 2 c-13
-13 -26 -3 -16 12 3 6 11 8 17 5 6 -4 6 -10 -1 -17z m-532 -1 c-20 -19 -116
-86 -123 -86 -14 0 -1 11 64 54 48 31 73 45 59 32z m6 -36 c-16 -10 -31 -17
-34 -14 -7 6 32 33 49 34 8 0 2 -9 -15 -20z m49 -11 c-4 -8 1 -9 17 -5 21 6
22 6 5 -5 -14 -9 -21 -8 -34 5 -15 15 -15 16 1 16 11 0 15 -5 11 -11z m176
-19 c-24 -19 -40 -25 -40 -15 0 5 51 34 60 34 3 0 -6 -8 -20 -19z m610 4 c0
-17 -22 -14 -28 4 -2 7 3 12 12 12 9 0 16 -7 16 -16z m-730 1 c0 -2 -10 -9
-22 -15 -22 -11 -22 -10 -4 4 21 17 26 19 26 11z m80 1 c0 -3 -13 -11 -30 -20
-16 -8 -30 -11 -30 -7 0 4 10 13 23 19 24 12 37 14 37 8z m88 -2 c-4 -3 1 -14
10 -23 13 -14 21 -15 32 -7 13 9 13 9 2 -6 -13 -16 -47 -14 -37 2 3 5 -4 11
-15 15 -20 6 -19 25 2 25 6 0 9 -3 6 -6z m-298 -79 c-7 -8 -17 -15 -22 -15 -6
0 -5 7 2 15 7 8 17 15 22 15 6 0 5 -7 -2 -15z m110 0 c-7 -8 -17 -15 -22 -15
-6 0 -5 7 2 15 7 8 17 15 22 15 6 0 5 -7 -2 -15z"/>
<path d="M3370 5068 c-87 -47 -106 -62 -111 -85 l-7 -28 -1 27 c-1 37 -19 45
-24 11 l-4 -28 -2 30 c-1 24 -10 35 -46 57 l-45 28 0 -340 c0 -187 2 -340 4
-340 3 0 32 16 65 35 57 34 61 38 61 72 0 20 -3 33 -6 30 -4 -4 -14 1 -23 11
-9 10 -29 26 -46 37 l-30 20 35 5 c21 4 39 2 45 -5 14 -16 96 -58 102 -52 2 3
-4 8 -15 11 -17 6 -34 17 -80 57 -10 8 -10 14 -2 24 7 9 10 50 8 114 -2 56 -2
101 0 101 2 0 10 -7 19 -16 9 -8 22 -13 30 -10 9 4 11 2 7 -6 -5 -8 -2 -9 10
-5 10 4 15 3 11 -3 -9 -15 24 -25 38 -11 8 8 6 11 -9 11 -15 0 -16 2 -4 9 8 6
18 7 22 4 5 -2 14 0 21 5 7 5 20 8 30 7 9 -2 17 3 17 11 0 14 -24 10 -48 -9
-7 -5 -16 -7 -20 -3 -4 4 1 13 11 20 21 16 22 26 2 26 -8 0 -15 5 -15 11 0 5
5 7 10 4 6 -3 10 -2 10 4 0 5 20 -2 46 -16 25 -14 46 -24 47 -22 1 2 0 60 -3
129 l-5 125 -105 -57z m-10 -218 c0 -5 -9 -10 -21 -10 -11 0 -17 5 -14 10 3 6
13 10 21 10 8 0 14 -4 14 -10z"/>
<path d="M3310 5096 c0 -2 7 -7 16 -10 8 -3 12 -2 9 4 -6 10 -25 14 -25 6z"/>
<path d="M3428 4818 c9 -11 10 -18 2 -23 -5 -3 -10 0 -10 7 0 9 -3 9 -10 -2
-23 -35 -9 -40 41 -14 37 20 47 30 39 38 -7 7 -13 7 -18 1 -8 -13 -22 -13 -42
0 -13 7 -13 6 -2 -7z"/>
<path d="M3468 4769 l-78 -39 0 -104 0 -104 33 -20 c64 -39 156 -83 176 -85
11 -1 23 -7 26 -15 3 -9 9 -10 22 -3 33 19 57 41 51 46 -3 3 -13 -1 -22 -10
-9 -9 -16 -12 -16 -6 0 13 31 30 46 24 6 -2 11 4 11 12 0 11 -7 15 -19 12 -10
-3 -16 -1 -12 4 10 16 36 10 41 -10 3 -12 11 -17 19 -14 13 5 12 8 -2 24 -9
11 -27 19 -38 19 -24 0 -86 35 -86 49 0 6 4 12 9 15 12 8 20 55 10 62 -5 3 -9
37 -9 75 0 58 -3 71 -17 75 -10 3 -29 12 -43 19 -23 12 -32 9 -102 -26z"/>
<path d="M3353 4783 c-16 -3 -23 -11 -22 -26 1 -18 2 -19 6 -4 3 13 11 17 24
14 10 -3 17 -1 14 3 -3 5 1 11 7 13 15 6 2 6 -29 0z"/>
<path d="M3280 4755 c0 -8 4 -15 10 -15 5 0 7 7 4 15 -4 8 -8 15 -10 15 -2 0
-4 -7 -4 -15z"/>
<path d="M3305 4650 c3 -5 11 -10 16 -10 6 0 7 5 4 10 -3 6 -11 10 -16 10 -6
0 -7 -4 -4 -10z"/>
<path d="M4143 4603 c-34 -20 -60 -40 -57 -44 2 -4 35 10 73 31 l69 39 52 -25
c29 -14 68 -35 89 -48 41 -26 92 -45 76 -28 -14 15 -213 112 -228 112 -7 -1
-40 -17 -74 -37z"/>
<path d="M4166 4531 c-12 -19 4 -51 25 -51 10 0 19 -4 19 -9 0 -4 28 -21 61
-36 45 -20 71 -26 97 -21 51 8 57 18 42 70 -14 50 -16 52 -45 32 -23 -15 -139
-20 -129 -5 3 6 -4 7 -19 4 -18 -5 -28 -2 -35 10 -6 12 -11 14 -16 6z m51 -37
c-3 -3 -12 -4 -19 -1 -8 3 -5 6 6 6 11 1 17 -2 13 -5z"/>
<path d="M3336 4468 c5 -7 1 -9 -12 -6 -26 7 -43 -13 -34 -37 4 -11 6 -23 4
-27 -3 -4 0 -9 6 -13 5 -3 10 -1 10 5 0 6 4 9 10 5 5 -3 33 6 61 21 37 18 48
28 39 34 -8 5 -25 3 -39 -4 -37 -19 -81 -28 -81 -17 0 4 18 11 41 15 35 6 39
9 29 21 -15 18 -45 20 -34 3z"/>
<path d="M3365 4393 c-64 -33 -80 -46 -80 -64 0 -17 11 -26 51 -41 l51 -20 68
29 c38 16 71 35 73 43 3 7 0 10 -7 6 -6 -4 -11 0 -11 9 0 9 -4 14 -8 11 -4 -2
-8 5 -9 17 0 12 1 16 4 9 3 -6 8 -10 13 -7 5 3 17 -6 27 -19 12 -15 24 -21 32
-17 14 9 -77 71 -103 71 -8 0 -16 3 -18 8 -1 4 -39 -12 -83 -35z"/>
<path d="M3250 4419 c0 -5 5 -7 10 -4 6 3 10 8 10 11 0 2 -4 4 -10 4 -5 0 -10
-5 -10 -11z"/>
<path d="M3070 4326 c7 -7 13 -7 20 0 6 6 3 10 -10 10 -13 0 -16 -4 -10 -10z"/>
<path d="M3053 3965 c0 -22 2 -30 4 -17 2 12 2 30 0 40 -3 9 -5 -1 -4 -23z"/>
<path d="M3185 3970 c3 -5 8 -10 11 -10 2 0 4 5 4 10 0 6 -5 10 -11 10 -5 0
-7 -4 -4 -10z"/>
<path d="M3050 3854 c0 -14 4 -23 9 -20 5 3 7 15 4 26 -7 28 -13 25 -13 -6z"/>
<path d="M3150 3670 c0 -5 5 -10 10 -10 6 0 10 5 10 10 0 6 -4 10 -10 10 -5 0
-10 -4 -10 -10z"/>
<path d="M3180 3668 c0 -10 5 -18 10 -18 6 0 15 -10 20 -22 8 -22 9 -22 9 5 1
16 -3 26 -8 22 -6 -3 -14 3 -20 12 -10 17 -10 17 -11 1z"/>
<path d="M3112 3612 c-10 -3 -7 -8 7 -19 12 -8 21 -24 21 -35 0 -29 11 -16 14
16 2 16 -2 26 -10 26 -7 0 -14 4 -16 9 -1 4 -9 6 -16 3z"/>
<path d="M2925 3543 c4 -10 8 -24 8 -30 0 -7 6 -13 13 -13 7 0 19 -2 26 -5 9
-4 14 2 14 13 0 13 -7 19 -21 18 -13 -1 -20 5 -19 17 1 9 -5 17 -13 17 -11 0
-13 -5 -8 -17z"/>
<path d="M4722 4043 c-10 -4 -10 -8 -1 -19 14 -17 16 -16 -46 -47 -46 -23 -52
-23 -72 -10 -21 14 -23 14 -23 -1 0 -9 -3 -16 -6 -16 -11 0 -49 23 -56 34 -6
8 -8 8 -8 0 0 -15 28 -38 70 -56 60 -27 78 -29 118 -17 48 14 65 39 52 74 -10
26 -9 26 20 20 19 -4 30 -3 30 4 0 6 -9 11 -20 11 -11 0 -23 7 -26 15 -6 16
-11 17 -32 8z"/>
<path d="M4821 4011 c-16 -10 -6 -31 14 -31 8 0 13 9 12 20 -1 22 -5 24 -26
11z"/>
<path d="M4075 4080 c3 -5 8 -10 11 -10 2 0 4 5 4 10 0 6 -5 10 -11 10 -5 0
-7 -4 -4 -10z"/>
<path d="M2180 3995 c0 -15 6 -25 14 -25 19 0 28 14 20 34 -10 25 -34 19 -34
-9z"/>
<path d="M2130 3989 c0 -4 9 -13 20 -19 16 -8 20 -8 20 3 0 8 -9 17 -20 20
-11 3 -20 1 -20 -4z"/>
<path d="M2255 3640 c-3 -6 1 -7 9 -4 18 7 21 14 7 14 -6 0 -13 -4 -16 -10z"/>
<path d="M2513 3423 c-16 -6 -17 -33 -1 -33 6 0 8 3 5 7 -4 3 -2 12 4 20 12
14 11 14 -8 6z"/>
<path d="M3728 3621 l-27 -17 37 0 c20 0 45 -4 56 -8 16 -8 15 -5 -5 17 -26
31 -25 31 -61 8z"/>
<path d="M3810 3570 c0 -9 14 -14 33 -11 12 2 8 -9 -9 -26 -13 -13 -20 -14
-35 -5 -16 10 -19 9 -19 -5 0 -9 -3 -14 -6 -10 -8 8 -84 -30 -84 -42 0 -14 49
-22 70 -11 26 14 40 13 40 -5 0 -8 5 -15 11 -15 6 0 9 7 6 15 -10 24 9 27 65
10 34 -10 54 -12 56 -5 2 6 8 8 13 4 8 -5 13 9 10 31 -1 6 5 2 12 -7 18 -23
38 -23 30 -2 -3 9 -44 34 -90 55 -88 41 -103 45 -103 29z m76 -56 c-3 -8 1
-14 9 -14 8 0 15 -5 15 -10 0 -7 -7 -7 -21 0 -11 7 -28 9 -37 5 -14 -5 -14 -4
1 13 9 10 14 22 10 26 -4 4 1 4 10 0 10 -4 16 -13 13 -20z m63 -23 c0 -10 -2
-11 -6 -3 -2 6 -9 10 -14 6 -5 -3 -9 2 -9 10 0 10 6 13 15 10 8 -4 15 -14 14
-23z"/>
<path d="M3640 3515 c0 -17 9 -19 28 -6 11 7 10 10 -3 15 -23 9 -25 8 -25 -9z"/>
<path d="M3568 3486 c-10 -7 -18 -16 -18 -19 0 -9 54 3 65 15 7 8 5 9 -7 5 -9
-3 -18 -2 -20 3 -2 5 -11 3 -20 -4z"/>
<path d="M3620 3446 c0 -9 22 -27 50 -41 59 -30 67 -26 11 6 -22 12 -39 26
-38 32 1 5 -4 12 -10 14 -7 3 -13 -2 -13 -11z"/>
<path d="M3750 3435 c-14 -16 -3 -20 19 -6 8 5 9 11 3 15 -5 3 -15 -1 -22 -9z"/>
<path d="M3828 3413 c-28 -14 -35 -27 -20 -37 13 -8 72 23 72 39 0 18 -16 18
-52 -2z"/>
<path d="M3935 3414 c-46 -36 -118 -65 -144 -60 -24 6 -25 5 -8 -8 13 -10 38
-13 94 -10 82 5 97 9 86 27 -4 6 -6 24 -5 39 3 32 3 32 -23 12z"/>
<path d="M3488 3374 c-16 -8 -28 -23 -28 -35 0 -18 42 -45 63 -41 4 1 7 -2 7
-6 0 -22 44 -3 55 24 l13 29 7 -31 c8 -38 38 -59 55 -39 9 11 7 12 -9 8 -16
-4 -21 -1 -21 16 0 21 1 21 33 6 l32 -16 -25 20 c-14 11 -28 21 -32 21 -4 0
-30 14 -58 30 -58 34 -56 34 -92 14z"/>
<path d="M3990 3350 c-9 -6 -10 -10 -3 -10 6 0 15 5 18 10 8 12 4 12 -15 0z"/>
<path d="M3755 3160 c-3 -5 -1 -10 4 -10 6 0 11 5 11 10 0 6 -2 10 -4 10 -3 0
-8 -4 -11 -10z"/>
<path d="M4145 3510 c-3 -6 -3 -9 2 -8 4 1 19 -4 33 -12 29 -16 50 -21 50 -11
0 3 -15 13 -32 21 -18 7 -36 15 -40 17 -3 2 -9 -1 -13 -7z"/>
<path d="M3098 2998 c8 -8 17 -8 34 0 22 10 21 11 -11 11 -27 1 -32 -2 -23
-11z"/>
<path d="M4005 2370 c3 -5 11 -10 16 -10 6 0 7 5 4 10 -3 6 -11 10 -16 10 -6
0 -7 -4 -4 -10z"/>
<path d="M3504 2025 c-10 -8 -14 -15 -8 -15 6 0 17 7 24 15 16 19 9 19 -16 0z"/>
<path d="M3320 1940 c-8 -5 -12 -12 -9 -15 4 -3 12 1 19 10 14 17 11 19 -10 5z"/>
<path d="M1580 1740 c0 -19 3 -21 12 -12 9 9 9 15 0 24 -9 9 -12 7 -12 -12z"/>
<path d="M1832 1575 c2 -28 8 -40 18 -40 23 0 23 29 0 56 l-20 24 2 -40z"/>
<path d="M3516 1361 c-11 -12 -16 -31 -14 -53 l3 -33 28 28 c18 17 27 36 25
49 -4 29 -21 33 -42 9z"/>
<path d="M4946 1271 c-3 -5 3 -11 15 -14 16 -4 18 -3 8 9 -13 16 -16 17 -23 5z"/>
<path d="M4894 5422 c-33 -20 -69 -42 -80 -48 -31 -18 -22 -36 37 -77 l56 -39
34 17 c66 33 149 90 146 100 -4 12 -108 84 -122 84 -5 1 -37 -16 -71 -37z"/>
<path d="M3364 5396 c11 -9 24 -16 30 -16 12 0 7 5 -24 19 -24 11 -24 11 -6
-3z"/>
<path d="M5254 5304 c-76 -48 -152 -95 -168 -104 l-28 -18 38 -25 c87 -54 72
-56 212 30 70 42 141 86 158 98 17 11 40 25 49 31 16 9 11 14 -38 42 -31 18
-63 32 -70 32 -7 0 -76 -39 -153 -86z"/>
<path d="M5665 5268 c-22 -12 -35 -23 -28 -25 13 -5 68 22 78 37 9 15 -6 11
-50 -12z"/>
<path d="M5562 5179 c-18 -12 -31 -23 -29 -26 5 -4 77 36 77 43 0 9 -16 3 -48
-17z"/>
<path d="M5737 5194 c-4 -4 -4 -10 -1 -15 6 -10 34 0 34 12 0 10 -24 12 -33 3z"/>
<path d="M5843 5151 c-32 -16 -43 -31 -23 -31 18 0 70 30 70 40 0 13 -7 11
-47 -9z"/>
<path d="M4395 5130 c-5 -8 35 -61 107 -143 27 -31 142 -92 660 -351 345 -173
624 -317 620 -320 -3 -4 1 -4 11 0 9 3 23 2 30 -3 6 -5 24 -14 40 -21 24 -10
27 -9 27 6 0 13 -28 30 -102 62 -170 72 -286 133 -607 317 -168 97 -359 205
-424 240 -64 35 -171 99 -237 142 -66 44 -122 76 -125 71z"/>
<path d="M5420 5093 c-19 -9 -30 -18 -23 -20 11 -4 73 23 73 32 0 8 -12 5 -50
-12z"/>
<path d="M5595 5099 c-11 -17 1 -21 15 -4 8 9 8 15 2 15 -6 0 -14 -5 -17 -11z"/>
<path d="M5727 5076 c-15 -7 -25 -15 -21 -18 8 -8 54 12 54 24 0 4 -1 8 -2 7
-2 0 -15 -6 -31 -13z"/>
<path d="M5793 5052 c-35 -18 -42 -32 -18 -32 19 0 65 29 65 41 0 12 -10 10
-47 -9z"/>
<path d="M2655 5040 c3 -5 11 -10 16 -10 6 0 7 5 4 10 -3 6 -11 10 -16 10 -6
0 -7 -4 -4 -10z"/>
<path d="M2510 5015 c-17 -10 -20 -14 -9 -15 9 0 22 7 29 15 15 18 12 18 -20
0z"/>
<path d="M5550 4990 c-12 -8 -12 -10 5 -10 11 0 27 5 35 10 12 8 12 10 -5 10
-11 0 -27 -5 -35 -10z"/>
<path d="M5663 4970 c-44 -26 -42 -34 2 -13 19 9 35 20 35 25 0 11 0 11 -37
-12z"/>
<path d="M5865 4941 c-6 -5 -37 -25 -70 -44 -33 -19 -118 -69 -188 -112 -126
-76 -129 -78 -166 -66 -82 24 -84 0 -3 -48 106 -63 257 -148 326 -184 65 -34
71 -35 98 -21 30 15 37 44 15 63 -11 8 -19 5 -37 -14 -26 -28 -46 -31 -73 -10
-18 13 -18 14 2 24 11 6 27 11 35 11 9 0 16 4 16 8 0 12 -22 32 -36 32 -16 0
-86 41 -81 47 3 2 45 -16 96 -40 77 -38 91 -42 91 -27 0 13 -6 17 -22 14 l-23
-5 23 17 c36 27 29 60 -19 80 l-40 18 38 11 38 11 3 122 c2 116 -2 134 -23
113z m-45 -181 c0 -5 -9 -10 -21 -10 -11 0 -17 5 -14 10 3 6 13 10 21 10 8 0
14 -4 14 -10z m-110 -60 c8 -5 12 -12 8 -15 -10 -10 -49 5 -43 16 8 11 16 11
35 -1z m130 -47 c0 -5 -7 -17 -15 -27 -13 -17 -18 -18 -41 -7 -21 9 -24 14
-14 26 13 15 70 21 70 8z m-215 -12 c7 -13 -33 -34 -51 -27 -19 7 -18 24 4 29
29 8 41 7 47 -2z m115 -51 c24 -16 -17 -43 -54 -36 -40 8 -45 15 -22 32 23 16
55 18 76 4z"/>
<path d="M5283 4894 c-38 -23 -55 -44 -37 -44 17 0 103 54 98 61 -8 13 -14 11
-61 -17z"/>
<path d="M2393 4632 c-2 -147 -3 -291 -3 -319 0 -29 -4 -53 -10 -53 -5 0 -19
-9 -29 -19 -20 -20 -20 -20 -1 -26 11 -4 24 -3 30 0 5 3 10 -2 10 -12 0 -10
17 -27 40 -41 42 -24 56 -15 18 11 -16 11 -18 16 -8 16 23 1 38 -12 41 -37 2
-12 9 -23 14 -24 6 0 20 -4 33 -9 13 -5 21 -5 18 -1 -3 5 -6 154 -7 332 -1
321 -1 323 -24 345 -12 13 -25 30 -28 39 -5 12 -78 66 -89 66 -2 0 -4 -120 -5
-268z m71 212 c8 -21 5 -23 -19 -13 -11 4 -14 8 -7 8 7 1 10 6 7 11 -3 6 -2
10 3 10 6 0 13 -7 16 -16z m-5 -33 c8 -5 11 -16 8 -25 -4 -9 -1 -16 5 -16 6 0
9 -3 6 -6 -4 -3 -19 2 -35 11 -27 15 -27 15 -3 10 l25 -6 -24 20 c-23 21 -10
30 18 12z m16 -71 c3 -6 -1 -7 -9 -4 -18 7 -21 14 -7 14 6 0 13 -4 16 -10z
m-5 -25 c7 -8 8 -15 2 -15 -5 0 -15 7 -22 15 -7 8 -8 15 -2 15 5 0 15 -7 22
-15z m5 -35 c3 -6 -1 -7 -9 -4 -18 7 -21 14 -7 14 6 0 13 -4 16 -10z m-5 -30
c8 -5 11 -10 5 -10 -5 0 -17 5 -25 10 -8 5 -10 10 -5 10 6 0 17 -5 25 -10z
m-10 -20 c8 -5 16 -18 16 -30 1 -22 -4 -24 -26 -10 -12 8 -12 10 5 10 18 0 18
2 -5 20 -25 20 -18 28 10 10z m10 -70 c8 -5 11 -10 5 -10 -5 0 -17 5 -25 10
-8 5 -10 10 -5 10 6 0 17 -5 25 -10z m-4 -25 c10 -8 15 -14 9 -14 -5 0 -19 6
-29 14 -11 8 -15 15 -10 15 6 0 19 -7 30 -15z m1 -31 c-3 -3 -12 -4 -19 -1 -8
3 -5 6 6 6 11 1 17 -2 13 -5z m-2 -24 c3 -5 2 -10 -4 -10 -5 0 -13 5 -16 10
-3 6 -2 10 4 10 5 0 13 -4 16 -10z m1 -35 c10 -8 15 -14 9 -14 -5 0 -19 6 -29
14 -11 8 -15 15 -10 15 6 0 19 -7 30 -15z m12 -61 c-2 -37 -5 -39 -28 -24 -13
9 -13 10 0 10 10 0 7 7 -10 20 l-25 20 28 -10 c31 -11 35 -4 10 16 -16 12 -16
12 5 7 18 -4 22 -11 20 -39z m-14 -40 c18 -7 20 -22 7 -43 -8 -12 -12 -11 -27
4 -17 17 -17 17 6 10 25 -8 25 -8 6 14 -20 22 -18 25 8 15z m0 -73 c4 -5 0
-12 -6 -14 -8 -3 -6 -6 5 -6 9 -1 17 -6 17 -12 0 -21 -35 -3 -36 19 -1 22 10
30 20 13z m2 -66 c20 -19 5 -19 -20 0 -11 9 -14 15 -7 15 7 0 19 -7 27 -15z"/>
<path d="M5519 4880 l-24 -21 33 16 c31 15 41 25 23 25 -5 0 -19 -9 -32 -20z"/>
<path d="M5182 4816 c-47 -24 -48 -40 -2 -24 28 9 57 35 49 42 -2 2 -23 -6
-47 -18z"/>
<path d="M5445 4830 c-3 -5 -1 -10 4 -10 6 0 11 5 11 10 0 6 -2 10 -4 10 -3 0
-8 -4 -11 -10z"/>
<path d="M5375 4790 c-3 -5 -2 -10 4 -10 5 0 13 5 16 10 3 6 2 10 -4 10 -5 0
-13 -4 -16 -10z"/>
<path d="M5304 4735 c-10 -8 -14 -15 -7 -15 19 0 43 11 43 21 0 13 -14 11 -36
-6z"/>
<path d="M1890 4684 c-94 -50 -110 -61 -82 -59 26 2 182 84 182 96 0 15 -10
11 -100 -37z"/>
<path d="M1915 4619 c-33 -16 -49 -27 -35 -23 30 8 100 42 100 49 0 6 6 8 -65
-26z"/>
<path d="M1746 4611 c-3 -5 3 -11 15 -14 16 -4 18 -3 8 9 -13 16 -16 17 -23 5z"/>
<path d="M2032 4564 c-35 -21 -41 -28 -31 -40 6 -8 20 -14 31 -14 28 0 150 58
144 69 -3 4 -24 8 -46 8 -34 0 -40 -3 -41 -21 -1 -20 -1 -20 -7 1 l-7 23 -43
-26z"/>
<path d="M1690 4510 c0 -40 3 -70 7 -67 7 7 5 128 -2 136 -3 2 -5 -29 -5 -69z"/>
<path d="M1815 4569 c-4 -6 -1 -9 6 -8 8 1 27 -3 42 -9 35 -15 37 -15 37 -1 0
5 -4 8 -8 5 -5 -3 -21 2 -36 10 -34 17 -33 17 -41 3z"/>
<path d="M861 3675 l-4 -745 22 0 c12 0 24 7 27 15 6 14 8 13 19 -1 14 -19 22
-11 25 26 4 43 1 52 -15 46 -24 -9 -18 4 17 34 31 27 31 28 10 39 -11 6 -28 8
-36 5 -14 -6 -16 57 -16 650 0 638 -1 656 -19 666 -11 5 -21 10 -23 10 -2 0
-5 -335 -7 -745z"/>
<path d="M1364 4285 c11 -8 24 -15 30 -15 5 0 1 7 -10 15 -10 8 -23 14 -29 14
-5 0 -1 -6 9 -14z"/>
<path d="M608 4233 c-5 -13 -305 -163 -325 -163 -11 0 -28 -7 -39 -16 -10 -8
-12 -13 -4 -9 10 4 9 2 -2 -8 -24 -19 -23 -25 4 -29 14 -3 84 27 182 76 157
80 223 126 211 146 -7 12 -22 13 -27 3z"/>
<path d="M2356 4143 c-26 -13 -46 -27 -43 -29 3 -3 18 1 34 9 57 29 72 30 81
6 7 -18 10 -19 15 -6 4 10 -2 21 -16 30 -20 13 -27 12 -71 -10z"/>
<path d="M2454 4100 c-17 -10 -40 -20 -50 -22 -17 -4 -17 -5 5 -17 13 -7 21
-9 17 -3 -3 5 10 18 29 28 19 10 35 22 35 26 0 10 1 10 -36 -12z"/>
<path d="M2500 4115 c0 -9 24 -30 38 -32 19 -4 14 3 -13 21 -14 9 -25 14 -25
11z"/>
<path d="M1160 4080 c0 -5 5 -10 11 -10 5 0 7 5 4 10 -3 6 -8 10 -11 10 -2 0
-4 -4 -4 -10z"/>
<path d="M1208 4073 c7 -3 16 -2 19 1 4 3 -2 6 -13 5 -11 0 -14 -3 -6 -6z"/>
<path d="M1147 4053 c-3 -5 1 -14 9 -21 12 -11 14 -9 14 8 0 20 -14 27 -23 13z"/>
<path d="M2449 4037 c5 -5 19 -7 32 -5 20 3 19 5 -9 9 -20 3 -29 2 -23 -4z"/>
<path d="M1393 4017 c-25 -11 -29 -22 -12 -33 13 -7 43 19 38 34 -3 6 -12 6
-26 -1z"/>
<path d="M1411 3977 c-37 -19 -41 -42 -5 -33 32 8 54 24 54 37 0 13 -21 11
-49 -4z"/>
<path d="M1020 3519 c0 -360 3 -449 13 -441 15 13 13 892 -3 892 -6 0 -10
-163 -10 -451z"/>
<path d="M1080 3493 c0 -306 3 -453 10 -453 14 0 13 870 -1 891 -5 8 -9 -162
-9 -438z"/>
<path d="M1480 3930 c-9 -6 -10 -10 -3 -10 6 0 15 5 18 10 8 12 4 12 -15 0z"/>
<path d="M806 3922 c-4 -7 -4 -18 0 -24 6 -10 4 -10 -8 0 -13 10 -50 -8 -243
-118 -182 -106 -229 -129 -241 -119 -11 9 -14 9 -14 -2 0 -10 -3 -10 -12 -1
-7 7 -19 12 -27 12 -8 0 -22 7 -32 16 -15 14 -21 14 -45 2 -15 -7 -29 -18 -31
-24 -2 -5 32 -27 76 -48 64 -31 83 -36 100 -27 11 6 28 11 38 11 19 0 298 155
377 209 44 31 82 88 74 113 -3 9 -6 9 -12 0z"/>
<path d="M1141 3483 c0 -230 2 -428 6 -440 13 -53 18 -14 16 124 -1 82 -2 280
-3 441 0 173 -4 292 -9 292 -6 0 -10 -168 -10 -417z"/>
<path d="M1210 3433 c0 -291 4 -454 10 -458 13 -8 13 874 0 895 -6 10 -10
-141 -10 -437z"/>
<path d="M1276 3412 c0 -235 -1 -433 -4 -439 -2 -7 -8 -10 -13 -7 -5 3 -14 -6
-21 -20 -9 -21 -14 -24 -26 -14 -7 7 -26 12 -40 13 -15 0 -26 4 -24 9 2 4 -13
19 -33 33 -20 14 -33 29 -29 35 5 7 1 9 -9 5 -10 -3 -17 -2 -17 3 0 6 -7 10
-15 10 -10 0 -15 -10 -15 -31 0 -20 -4 -29 -12 -27 -13 5 -38 -14 -38 -27 0
-4 7 -4 16 -1 14 5 15 4 4 -9 -7 -9 -21 -13 -31 -10 -9 3 -20 1 -24 -5 -10
-17 12 -37 37 -34 13 1 28 3 35 3 6 1 19 8 27 17 13 12 16 13 16 1 0 -9 10
-13 33 -10 l32 3 -31 -10 c-38 -12 -66 -40 -40 -40 9 0 16 -4 16 -10 0 -5 9
-14 20 -20 16 -8 27 -7 50 6 16 10 26 22 23 27 -3 6 -1 7 5 4 5 -4 40 6 77 23
47 21 64 33 58 42 -4 7 -9 181 -10 387 -1 229 2 369 8 360 7 -11 9 -11 9 4 0
9 -4 17 -8 17 -5 0 -9 16 -10 35 -1 21 3 33 8 30 6 -3 10 1 10 10 0 9 -4 13
-10 10 -6 -4 -10 7 -10 24 0 17 -3 31 -7 31 -5 0 -8 -192 -7 -428z m-246 -482
c0 -5 -2 -10 -4 -10 -3 0 -8 5 -11 10 -3 6 -1 10 4 10 6 0 11 -4 11 -10z"/>
<path d="M1940 3796 c0 -2 7 -7 16 -10 8 -3 12 -2 9 4 -6 10 -25 14 -25 6z"/>
<path d="M1954 3750 c0 -10 6 -16 13 -13 9 4 11 0 7 -11 -8 -20 0 -21 15 -2 9
10 6 17 -12 29 -21 13 -23 13 -23 -3z"/>
<path d="M2890 3220 c0 -5 5 -10 11 -10 5 0 7 5 4 10 -3 6 -8 10 -11 10 -2 0
-4 -4 -4 -10z"/>
<path d="M2865 3210 c-3 -5 -1 -10 4 -10 6 0 11 5 11 10 0 6 -2 10 -4 10 -3 0
-8 -4 -11 -10z"/>
<path d="M2880 3160 c-9 -6 -10 -10 -3 -10 6 0 15 5 18 10 8 12 4 12 -15 0z"/>
<path d="M983 3128 c-8 -18 -6 -27 8 -42 19 -19 19 -19 19 22 0 46 -11 54 -27
20z"/>
<path d="M741 3116 c8 -8 79 -35 79 -30 0 3 -16 12 -35 20 -33 14 -53 18 -44
10z"/>
<path d="M2818 3049 c9 -9 12 -63 12 -196 0 -140 3 -183 13 -183 6 0 23 -9 37
-20 14 -11 28 -20 33 -20 4 0 7 85 7 188 l0 188 -57 28 c-32 15 -52 22 -45 15z"/>
<path d="M957 3013 c6 -16 8 -16 23 1 9 12 8 15 -8 13 -12 0 -18 -6 -15 -14z"/>
<path d="M2777 2979 c7 -7 15 -10 18 -7 3 3 -2 9 -12 12 -14 6 -15 5 -6 -5z"/>
<path d="M2770 2925 c0 -16 16 -20 24 -6 3 5 -1 11 -9 15 -9 3 -15 0 -15 -9z"/>
<path d="M1025 2889 c-11 -17 0 -20 21 -4 17 13 17 14 2 15 -9 0 -20 -5 -23
-11z"/>
<path d="M1370 2764 c0 -18 -6 -34 -14 -37 -8 -3 -13 1 -12 10 0 9 -5 18 -13
21 -10 3 -11 0 -5 -9 6 -12 5 -12 -8 -1 -13 10 -17 10 -22 -3 -3 -8 -1 -15 4
-15 6 0 10 -9 10 -19 0 -10 7 -22 16 -25 9 -3 12 -2 9 4 -4 6 15 -4 40 -21 26
-17 77 -44 113 -60 l66 -27 39 30 c21 17 41 28 44 24 4 -3 1 -6 -5 -6 -7 0
-12 -4 -12 -10 0 -6 10 -5 25 2 25 11 25 11 -26 40 -28 16 -53 27 -57 24 -3
-3 -1 -6 5 -6 6 0 13 -7 16 -14 4 -11 1 -13 -10 -9 -11 5 -14 3 -8 -6 6 -11 3
-11 -16 0 -13 7 -26 13 -29 13 -3 1 -4 4 -3 8 2 4 -7 10 -19 14 -12 4 -29 13
-36 21 -12 12 -16 12 -23 2 -11 -19 -18 -9 -21 33 -1 26 -6 34 -16 30 -8 -2
-18 1 -23 9 -6 10 -9 5 -9 -17z"/>
<path d="M1833 2775 c-19 -21 -16 -25 15 -25 28 0 60 15 52 24 -14 13 -56 14
-67 1z"/>
<path d="M1955 2780 c-3 -5 -1 -10 4 -10 6 0 11 5 11 10 0 6 -2 10 -4 10 -3 0
-8 -4 -11 -10z"/>
<path d="M1900 2750 c-14 -11 -20 -20 -15 -20 6 -1 0 -5 -12 -10 -15 -6 -21
-15 -17 -25 3 -8 2 -15 -4 -15 -6 0 -12 4 -14 10 -2 5 -9 6 -17 1 -9 -6 -11
-18 -6 -39 5 -24 16 -34 55 -51 50 -22 78 -28 48 -11 -15 9 -15 13 2 47 21 44
16 66 -13 57 -18 -6 -17 -3 6 18 25 23 37 58 20 58 -5 0 -19 -9 -33 -20z"/>
<path d="M2265 2660 c-9 -10 -27 -17 -41 -15 -30 3 -45 -23 -21 -36 27 -15 48
-40 42 -50 -8 -12 -3 -11 31 1 54 21 7 -15 -58 -44 -35 -16 -72 -33 -82 -38
-16 -8 -23 -6 -36 10 -16 20 -16 20 -33 -1 -10 -12 -15 -31 -12 -46 3 -14 2
-20 -1 -13 -9 20 -24 3 -24 -29 0 -16 -5 -29 -10 -29 -6 0 -8 11 -4 25 5 20 2
25 -12 25 -16 0 -17 -2 -4 -10 8 -5 10 -10 5 -10 -6 0 -16 5 -23 12 -9 9 -12
9 -12 -2 0 -7 -3 -10 -7 -6 -4 4 3 15 16 25 l23 18 -54 30 c-55 31 -95 34
-126 10 -7 -5 -15 -7 -19 -3 -3 3 -2 6 4 6 23 0 -6 72 -39 98 -14 11 -16 11
-11 -6 2 -10 -1 -25 -9 -33 -27 -30 -48 -76 -29 -64 5 3 12 -3 16 -14 7 -24
70 -54 99 -47 15 4 26 -1 35 -16 11 -17 15 -18 23 -7 8 12 9 11 5 -1 -2 -8
-10 -14 -16 -12 -6 1 -11 -2 -11 -6 0 -12 59 -44 69 -38 5 3 11 0 14 -7 3 -9
16 -12 35 -9 31 4 53 -15 32 -28 -9 -5 -6 -10 11 -15 13 -4 56 -29 96 -56 69
-47 100 -62 76 -38 -9 9 -8 19 4 42 11 22 17 26 23 17 5 -7 4 -23 -2 -35 -7
-16 -7 -29 1 -44 16 -29 23 -27 47 19 l22 39 -27 10 c-14 5 -21 10 -14 10 21
2 64 -19 59 -27 -3 -5 8 -8 23 -7 19 1 27 -3 25 -10 -5 -13 64 -51 109 -60 15
-3 27 -10 27 -15 0 -5 -8 -7 -17 -4 -14 5 -15 4 -4 -4 8 -6 20 -8 27 -5 6 2
15 0 19 -6 3 -6 -1 -14 -9 -17 -16 -6 -85 32 -141 79 -31 26 -34 26 -66 12
-19 -8 -26 -14 -16 -15 9 0 17 -5 17 -11 0 -5 -4 -7 -10 -4 -5 3 -10 0 -10 -7
0 -18 57 -51 75 -44 8 3 14 0 12 -7 -1 -6 18 -22 42 -34 25 -13 48 -28 53 -35
6 -10 13 -7 28 11 11 13 20 29 20 36 0 7 7 15 15 19 8 3 15 9 15 13 0 14 -91
64 -103 57 -7 -4 -9 -4 -5 1 4 4 -11 21 -32 36 -48 35 -50 42 -9 27 16 -6 32
-8 34 -6 6 6 -109 78 -159 101 -23 10 -48 25 -58 34 -9 8 -22 12 -28 8 -6 -3
-9 -1 -8 6 2 6 -3 14 -11 17 -8 3 -11 0 -7 -7 4 -6 3 -11 -2 -11 -4 0 -9 -21
-11 -47 -3 -66 -11 -67 -12 -2 -1 30 -3 46 -6 37 -2 -10 -11 -18 -18 -18 -7 0
-15 -6 -18 -12 -2 -7 -8 -10 -12 -6 -10 10 14 40 26 32 5 -3 9 2 9 10 0 9 7
16 15 16 8 0 15 7 15 15 0 8 5 15 10 15 6 0 10 5 10 10 0 6 -13 10 -30 10 -39
0 -39 16 0 24 17 3 61 24 99 46 70 42 86 47 94 30 3 -6 4 -5 2 2 -1 7 9 26 24
42 24 26 24 28 4 17 -13 -7 -23 -8 -23 -2 0 5 5 11 11 13 6 2 -7 16 -30 31
-42 28 -53 41 -26 31 8 -4 15 -4 15 -1 0 15 -30 13 -45 -3z m55 -45 c7 -8 11
-15 9 -16 -25 -4 -59 -7 -59 -4 0 2 3 10 6 19 8 20 28 21 44 1z m-470 -145 c0
-5 -2 -10 -4 -10 -3 0 -8 5 -11 10 -3 6 -1 10 4 10 6 0 11 -4 11 -10z m38 -30
c-15 -24 -22 -19 -13 9 3 12 11 19 16 16 5 -4 3 -14 -3 -25z"/>
<path d="M1954 2618 c-12 -34 -11 -42 6 -55 23 -18 27 -16 27 17 0 18 -6 30
-13 30 -8 0 -11 6 -8 15 4 8 4 15 1 15 -3 0 -9 -10 -13 -22z"/>
<path d="M1671 2598 c-5 -13 -6 -27 -3 -32 3 -5 0 -6 -7 -2 -6 4 -9 12 -6 17
6 8 -33 13 -52 7 -12 -4 -5 -50 7 -58 6 -4 22 -5 36 -2 18 3 26 -1 33 -19 5
-13 10 -18 10 -11 1 6 8 12 16 12 11 0 15 11 15 39 0 22 -3 46 -6 55 -9 23
-33 20 -43 -6z"/>
<path d="M2044 2579 c-10 -11 -24 -17 -31 -15 -12 5 -6 -12 15 -44 2 -3 20 -5
40 -5 22 0 37 -5 38 -12 1 -7 2 -15 3 -18 1 -7 78 32 85 44 3 5 -2 7 -13 4
-10 -3 -22 0 -25 6 -4 6 -18 11 -32 11 -14 0 -24 6 -24 15 0 8 -8 19 -19 24
-14 8 -23 6 -37 -10z"/>
<path d="M1260 2576 c0 -2 7 -7 16 -10 8 -3 12 -2 9 4 -6 10 -25 14 -25 6z"/>
<path d="M2830 2457 l0 -122 45 -16 45 -17 0 94 c0 51 -4 96 -10 99 -5 3 -10
15 -10 26 0 16 -5 19 -20 14 -15 -5 -22 0 -30 19 -5 14 -12 26 -15 26 -3 0 -5
-55 -5 -123z"/>
<path d="M2946 2533 c-11 -11 -7 -34 9 -49 13 -14 15 -12 15 15 0 30 -11 46
-24 34z"/>
<path d="M1650 2510 c0 -5 5 -10 11 -10 5 0 7 5 4 10 -3 6 -8 10 -11 10 -2 0
-4 -4 -4 -10z"/>
<path d="M2276 2475 c-8 -9 -12 -23 -9 -32 4 -10 2 -14 -4 -10 -6 4 -13 0 -17
-8 -3 -8 -1 -17 4 -20 13 -8 13 -35 -1 -35 -5 0 -8 4 -4 9 3 5 1 12 -5 16 -5
3 -10 -3 -10 -14 0 -12 2 -21 4 -21 2 0 33 -11 69 -25 l65 -24 -3 27 c-2 15 2
31 9 35 6 4 -2 5 -18 1 -21 -5 -27 -4 -22 5 4 6 13 11 20 11 16 0 41 54 32 69
-8 12 -36 8 -45 -8 -6 -9 -11 -8 -22 5 -9 12 -10 15 -1 10 6 -4 12 -5 12 -2 0
3 -9 10 -19 16 -15 7 -23 6 -35 -5z"/>
<path d="M2608 2432 c-53 -30 -63 -48 -21 -37 32 8 50 21 64 47 12 23 13 23
-43 -10z"/>
<path d="M2790 2451 c12 -9 11 -11 -7 -11 -14 0 -20 -5 -19 -17 3 -17 8 -19
36 -14 15 2 5 44 -11 49 -11 3 -11 1 1 -7z"/>
<path d="M2695 2420 c3 -5 8 -10 11 -10 2 0 4 5 4 10 0 6 -5 10 -11 10 -5 0
-7 -4 -4 -10z"/>
<path d="M2658 2343 c7 -3 16 -2 19 1 4 3 -2 6 -13 5 -11 0 -14 -3 -6 -6z"/>
<path d="M1710 2316 c0 -3 14 -12 30 -21 17 -9 30 -13 30 -11 0 3 -13 12 -30
21 -16 9 -30 13 -30 11z"/>
<path d="M2717 2289 c7 -7 15 -10 18 -7 3 3 -2 9 -12 12 -14 6 -15 5 -6 -5z"/>
<path d="M289 2117 l-284 -172 -3 -77 -3 -77 253 151 c425 253 445 269 392
303 -77 49 -41 62 -355 -128z"/>
<path d="M1800 2266 c0 -3 14 -12 30 -21 17 -9 30 -13 30 -11 0 3 -13 12 -30
21 -16 9 -30 13 -30 11z"/>
<path d="M5287 2252 c10 -7 43 -26 73 -41 30 -16 118 -63 195 -107 77 -43 163
-89 190 -102 28 -14 69 -38 92 -53 51 -36 55 -36 51 -2 -3 24 -22 36 -163 110
-88 45 -168 83 -177 83 -10 0 -18 5 -18 12 0 6 -3 8 -6 5 -4 -4 -23 2 -43 12
-20 11 -69 34 -108 52 -40 17 -71 35 -68 38 2 4 -5 7 -16 7 -19 0 -20 -1 -2
-14z"/>
<path d="M2465 2190 c3 -5 11 -10 16 -10 6 0 7 5 4 10 -3 6 -11 10 -16 10 -6
0 -7 -4 -4 -10z"/>
<path d="M2522 2164 c10 -10 20 -16 22 -13 3 3 -5 11 -17 18 -21 13 -21 12 -5
-5z"/>
<path d="M2040 2126 c0 -3 9 -10 20 -16 11 -6 20 -8 20 -6 0 3 -9 10 -20 16
-11 6 -20 8 -20 6z"/>
<path d="M2890 2121 c0 -6 4 -13 10 -16 6 -3 7 1 4 9 -7 18 -14 21 -14 7z"/>
<path d="M2841 2096 c-9 -10 -7 -16 5 -27 13 -11 17 -10 25 2 21 34 -5 56 -30
25z"/>
<path d="M2110 2087 c0 -3 21 -18 48 -33 26 -16 54 -33 63 -39 9 -5 27 -16 40
-23 23 -13 23 -13 -1 7 -14 12 -36 27 -50 34 -14 8 -42 24 -62 36 -21 13 -38
21 -38 18z"/>
<path d="M2564 2064 c-3 -11 -12 -31 -20 -45 -16 -32 -9 -40 51 -59 22 -7 50
-19 62 -27 19 -13 23 -12 37 9 30 42 18 65 -31 59 -7 -1 -13 3 -13 8 0 6 -7 8
-15 5 -8 -4 -15 -1 -15 4 0 6 -11 23 -25 38 -23 24 -25 25 -31 8z"/>
<path d="M2633 2053 c0 -14 1 -15 37 -17 14 -1 32 -6 40 -11 13 -7 13 -6 2 7
-8 9 -20 14 -28 11 -9 -3 -14 0 -12 7 2 7 -6 13 -18 14 -11 2 -21 -3 -21 -11z"/>
<path d="M2737 2019 c7 -7 15 -10 18 -7 3 3 -2 9 -12 12 -14 6 -15 5 -6 -5z"/>
<path d="M2875 1980 c-3 -5 -1 -10 4 -10 6 0 11 5 11 10 0 6 -2 10 -4 10 -3 0
-8 -4 -11 -10z"/>
<path d="M2297 1969 c7 -7 15 -10 18 -7 3 3 -2 9 -12 12 -14 6 -15 5 -6 -5z"/>
<path d="M2349 1943 c41 -30 124 -75 116 -64 -3 6 -24 20 -46 32 -22 11 -37
24 -34 30 4 5 11 6 17 3 7 -4 8 -2 4 5 -6 9 -11 9 -21 1 -10 -8 -20 -8 -37 0
-22 10 -22 10 1 -7z"/>
<path d="M2450 1910 c8 -5 20 -10 25 -10 6 0 3 5 -5 10 -8 5 -19 10 -25 10 -5
0 -3 -5 5 -10z"/>
<path d="M2559 1918 c-7 -27 -6 -39 3 -30 7 7 19 7 34 2 13 -5 24 -7 24 -5 0
5 -60 37 -61 33z"/>
<path d="M2800 1899 c0 -14 20 -20 36 -11 14 8 12 10 -10 14 -14 3 -26 2 -26
-3z"/>
<path d="M2680 1847 c0 -3 12 -12 26 -22 15 -9 23 -12 20 -6 -7 11 -46 35 -46
28z"/>
<path d="M2700 1790 c-9 -6 -10 -10 -3 -10 6 0 15 5 18 10 8 12 4 12 -15 0z"/>
<path d="M2757 1743 c-3 -5 5 -8 18 -8 13 0 21 3 18 8 -2 4 -10 7 -18 7 -8 0
-16 -3 -18 -7z"/>
<path d="M2790 1709 c0 -4 8 -9 18 -13 9 -3 22 -8 28 -11 6 -3 14 1 17 9 4 11
1 13 -10 9 -9 -4 -14 -2 -11 3 4 5 -5 9 -18 9 -13 0 -24 -3 -24 -6z"/>
<path d="M5515 1687 c-28 -13 -58 -35 -67 -49 -9 -14 -24 -33 -33 -42 -9 -9
-14 -16 -10 -16 3 0 -3 -10 -15 -22 -26 -28 -26 -42 1 -27 16 8 24 8 33 -2 8
-9 7 -11 -6 -6 -10 4 -18 2 -18 -3 0 -6 4 -10 10 -10 5 0 15 -11 23 -25 9 -18
78 -61 233 -145 l219 -119 3 236 c1 130 0 239 -4 242 -3 3 -76 7 -162 9 -148
2 -160 1 -207 -21z"/>
<path d="M2808 1670 c41 -25 54 -25 23 0 -13 11 -31 20 -40 20 -9 0 -3 -8 17
-20z"/>
<path d="M5280 1599 c0 -5 5 -7 10 -4 6 3 10 8 10 11 0 2 -4 4 -10 4 -5 0 -10
-5 -10 -11z"/>
<path d="M5255 1591 c-3 -5 -1 -12 5 -16 5 -3 10 1 10 9 0 18 -6 21 -15 7z"/>
<path d="M5200 1561 c0 -6 4 -13 10 -16 6 -3 7 1 4 9 -7 18 -14 21 -14 7z"/>
<path d="M4985 1170 c-3 -5 -2 -10 4 -10 5 0 13 5 16 10 3 6 2 10 -4 10 -5 0
-13 -4 -16 -10z"/>
<path d="M1499 1055 c-1 -3 -2 -11 -3 -17 -1 -7 -9 -12 -18 -10 -9 1 -22 -7
-28 -18 -10 -18 -8 -22 17 -30 36 -13 49 -12 45 5 -2 10 10 13 47 11 53 -2 59
8 11 19 -17 4 -35 15 -40 26 -10 17 -28 26 -31 14z"/>
<path d="M5380 989 c0 -6 23 -31 50 -56 28 -25 47 -50 44 -55 -4 -6 -1 -9 6
-6 13 4 21 -2 75 -51 11 -11 31 -22 45 -26 42 -12 130 -58 130 -67 0 -5 6 -6
13 -2 8 5 8 2 -2 -9 -16 -20 -9 -22 22 -6 20 11 20 10 -3 -16 l-25 -27 30 18
c29 16 32 16 78 -4 l47 -21 0 44 c0 39 -4 46 -30 60 -16 9 -30 20 -30 26 0 6
-4 7 -10 4 -5 -3 -10 -1 -10 4 0 6 -3 10 -7 10 -20 -3 -34 3 -51 21 -10 11
-36 26 -57 34 -22 8 -100 42 -174 75 -74 34 -136 61 -137 61 -2 0 -4 -5 -4
-11z"/>
<path d="M1609 973 c-1 -2 -2 -8 -3 -14 0 -6 -10 -17 -20 -24 -16 -12 -17 -17
-6 -30 19 -23 54 -15 58 13 2 14 10 22 23 22 17 0 18 3 7 20 -10 16 -54 25
-59 13z m16 -43 c-3 -5 -12 -10 -18 -10 -7 0 -6 4 3 10 19 12 23 12 15 0z"/>
<path d="M5086 853 c-48 -32 -82 -59 -76 -61 6 -2 19 3 28 11 9 8 48 35 86 61
39 25 65 46 60 46 -6 0 -49 -26 -98 -57z"/>
<path d="M5081 730 c-31 -26 -17 -26 16 0 14 11 22 20 17 20 -5 -1 -20 -10
-33 -20z"/>
<path d="M5232 691 c-11 -7 -11 -9 0 -14 9 -3 15 1 15 9 0 8 -1 14 -1 14 -1 0
-7 -4 -14 -9z"/>
<path d="M5699 673 c-13 -16 -12 -17 4 -4 9 7 17 15 17 17 0 8 -8 3 -21 -13z"/>
<path d="M5193 635 c0 -8 4 -12 9 -9 5 3 6 10 3 15 -9 13 -12 11 -12 -6z"/>
<path d="M5229 603 c-13 -16 -12 -17 4 -4 16 13 21 21 13 21 -2 0 -10 -8 -17
-17z"/>
<path d="M5249 593 c-13 -16 -12 -17 4 -4 9 7 17 15 17 17 0 8 -8 3 -21 -13z"/>
<path d="M4976 585 c-11 -8 -15 -15 -9 -15 6 0 16 7 23 15 16 19 11 19 -14 0z"/>
<path d="M5090 575 c-11 -13 -10 -14 4 -9 9 3 16 10 16 15 0 13 -6 11 -20 -6z"/>
<path d="M4999 543 c-11 -15 -11 -16 1 -5 16 14 34 16 26 3 -3 -5 1 -11 9 -15
23 -8 28 12 6 23 -26 14 -26 14 -42 -6z"/>
<path d="M5216 512 c-3 -5 1 -9 9 -9 8 0 12 4 9 9 -3 4 -7 8 -9 8 -2 0 -6 -4
-9 -8z"/>
<path d="M2751 373 c-17 -7 -511 -341 -531 -359 -12 -12 9 -14 138 -14 168 0
182 4 273 72 25 18 95 67 157 108 69 46 111 81 109 90 -1 8 -32 33 -69 55 -37
21 -64 43 -62 47 6 9 5 9 -15 1z"/>
<path d="M4300 269 c-22 -18 -22 -19 -3 -10 12 6 25 16 28 21 9 15 3 12 -25
-11z"/>
<path d="M3959 260 c-31 -26 -15 -26 18 0 14 11 21 20 15 20 -5 0 -20 -9 -33
-20z"/>
<path d="M4350 248 l-35 -31 33 19 c35 20 61 44 46 44 -5 -1 -25 -15 -44 -32z"/>
<path d="M4755 260 c-3 -6 1 -7 9 -4 18 7 21 14 7 14 -6 0 -13 -4 -16 -10z"/>
<path d="M5134 228 c-10 -13 -12 -17 -4 -10 17 15 34 16 24 1 -4 -7 1 -7 16 1
18 10 20 14 9 21 -20 13 -24 11 -45 -13z"/>
<path d="M4951 220 c-13 -11 -19 -20 -14 -20 6 0 18 9 28 20 23 25 17 25 -14
0z"/>
<path d="M4770 185 c-11 -13 -10 -14 4 -9 9 3 16 10 16 15 0 13 -6 11 -20 -6z"/>
<path d="M4946 187 c-16 -12 -16 -13 2 -13 10 0 19 6 19 13 0 7 -1 13 -2 13
-1 0 -9 -6 -19 -13z"/>
<path d="M4990 190 c-9 -6 -10 -10 -3 -10 6 0 15 5 18 10 8 12 4 12 -15 0z"/>
</g>
</svg>
